<svg viewBox="0 0 800 800" xmlns="http://www.w3.org/2000/svg"><path d="M527.36464559446,339.77883692353157 L509.7293186900208,349.9605976590566 M537.918783090216,345.91983618729637 L537.6586599697716,343.34799244031467 M537.6586599697716,343.34799244031467 L536.8813330359308,341.21110228399806 M536.8813330359308,341.21110228399806 L535.6257115411129,339.6163443513169 M535.6257115411129,339.6163443513169 L533.9546645444943,338.6437717121705 M533.9546645444943,338.6437717121705 L531.9519311709917,338.3422522725186 M531.9519311709917,338.3422522725186 L529.7179146210744,338.72700888887357 M529.7179146210744,338.72700888887357 L527.36464559446,339.77883692353157 M537.918783090216,345.91983618729637 L537.8666434185809,374.4811066723452 M537.8666434185809,374.4811066723452 L580.114014372429,350.0624438319865 M580.114014372429,350.0624438319865 L580.3099085934964,268.42716607421755 M509.78825034671274,309.09752402534684 L580.3099085934964,268.42716607421755 M509.7293186900208,349.9605976590566 L509.78825034671274,309.09752402534684 M495.5221701589594,321.4659109864266 L527.36464559446,339.77883692353157 M477.88681579963446,331.63749900407123 L495.5221701589594,321.4659109864266 M509.7293186900208,349.9605976590566 L477.88681579963446,331.63749900407123 M495.47632329014067,321.5107058668256 L537.918783090216,345.91983618729637 M495.5221701589594,321.4659109864266 L495.51385309727635,318.75635256046746 M495.51385309727635,318.75635256046746 L495.50508128633385,317.038741437211 M495.50508128633385,317.038741437211 L495.4964272340622,316.4266679476833 M495.4964272340622,316.4266679476833 L495.48921493391344,316.8558837052292 M495.48921493391344,316.8558837052292 L495.4835334104144,318.01831187774366 M495.4835334104144,318.01831187774366 L495.4794975685662,319.54242870183606 M495.4794975685662,319.54242870183606 L495.47632329014067,321.5107058668256 M495.4406962582537,350.0624438319865 L495.47632329014067,321.5107058668256 M495.4406962582537,350.0624438319865 L537.8666434185809,374.4811066723452 M467.2444468718072,366.3379392286344 L495.4406962582537,350.0624438319865 M438.99181751547013,350.0624438319865 L467.2444468718072,366.3379392286344 M509.4356398800796,309.436823605063 L438.99181751547013,350.0624438319865 M580.114014372429,350.0624438319865 L509.4356398800796,309.436823605063 M509.4356398800796,309.436823605063 L509.55291594394964,227.84703631599163 M580.3099085934964,268.42716607421755 L509.55291594394964,227.84703631599163 M467.2444468718072,366.3379392286344 L467.2691336467168,337.77984625731494 M467.2691336467168,337.77984625731494 L467.5373534390048,335.20823794381687 M467.5373534390048,335.20823794381687 L468.3239022490564,333.0714335712375 M468.3239022490564,333.0714335712375 L469.58942151485303,331.47661486779293 M469.58942151485303,331.47661486779293 L471.270529700258,330.50382850905385 M471.270529700258,330.50382850905385 L473.28298762888636,330.20195566281836 M473.28298762888636,330.20195566281836 L475.5259091887744,330.58623969002645 M475.5259091887744,330.58623969002645 L477.88681579963446,331.63749900407123 M439.03099635968357,268.42716607421755 L509.78825034671274,309.09752402534684 M438.99181751547013,350.0624438319865 L439.03099635968357,268.42716607421755 M467.2691336467168,337.77984625731494 L495.47632329014067,321.5107058668256 M509.55291594394964,227.84703631599163 L439.03099635968357,268.42716607421755" stroke="black"  stroke-width="4"  fill="red"/>
<path d="M403.7112683012304,370.4090710544052 L403.7112683012304,288.7510477281291 M333.0325680420368,411.17014758998397 L332.95394879814444,329.4666326654979 M403.7112683012304,370.4090710544052 L333.0325680420368,411.17014758998397 M403.7112683012304,288.7510477281291 L332.95394879814444,329.4666326654979 M442.58671319072516,351.9976286279229 L474.429256331552,370.3410981641291 M431.9748973968257,358.1366025234765 L432.2418100744523,355.56440570989463 M432.2418100744523,355.56440570989463 L433.02711765979257,353.4273822746099 M433.02711765979257,353.4273822746099 L434.29152386979575,351.832724999506 M434.29152386979575,351.832724999506 L435.97170303990833,350.86047256566616 M435.97170303990833,350.86047256566616 L437.98346264336067,350.55947947997487 M437.98346264336067,350.55947947997487 L440.2259516437461,350.94494508952477 M440.2259516437461,350.94494508952477 L442.58671319072516,351.9976286279229 M431.9748973968257,358.1366025234765 L431.96391330823644,386.70263928981313 M431.96391330823644,386.70263928981313 L403.7112683012304,370.4090710544052 M474.4685878043163,329.4666326654979 L403.7112683012304,288.7510477281291 M474.429256331552,370.3410981641291 L474.4685878043163,329.4666326654979 M333.0325680420368,411.17014758998397 L361.2851921118523,427.4999519290487 M361.2851921118523,427.4999519290487 L361.2686793215645,398.91802750372665 M361.2686793215645,398.91802750372665 L361.53296854592037,396.3446545314883 M361.53296854592037,396.3446545314883 L362.31578393576785,394.20719547241333 M362.31578393576785,394.20719547241333 L363.57795425463826,392.6128650907746 M363.57795425463826,392.6128650907746 L365.2562660716846,391.64168587684185 M365.2562660716846,391.64168587684185 L367.2666206271602,391.34245874695375 M367.2666206271602,391.34245874695375 L369.5082374572997,391.73029469826855 M369.5082374572997,391.73029469826855 L371.8687035256885,392.78583424513675 M403.7112683012304,411.1701475899841 L371.8687035256885,392.78583424513675 M403.7112683012304,411.1701475899841 L403.7112683012304,370.2728981929278 M332.95394879814444,329.4666326654979 L403.7112683012304,370.2728981929278 M361.2851921118523,427.4999519290487 L431.96391330823644,386.70263928981313 M371.8687035256885,392.78583424513675 L442.58671319072516,351.9976286279229 M474.429256331552,370.3410981641291 L403.7112683012304,411.1701475899841 M361.2686793215645,398.91802750372665 L431.9748973968257,358.1366025234765 M403.7112683012304,370.2728981929278 L474.4685878043163,329.4666326654979" stroke="black"  stroke-width="4"  fill="red"/>
<path d="M297.63428625574807,431.5846723029115 L297.5162261755639,349.8584114321268 M226.71953142511953,472.4818837478412 L226.52232614726313,390.71013089998036 M297.63428625574807,431.5846723029115 L226.71953142511953,472.4818837478412 M297.5162261755639,349.8584114321268 L226.52232614726313,390.71013089998036 M336.45066534991366,413.21398586471037 L368.29321137847194,431.6187722885121 M325.85656648581823,419.3427717810397 L326.1195393558874,416.76881115428756 M326.1195393558874,416.76881115428756 L326.90110375786855,414.6311355405103 M326.90110375786855,414.6311355405103 L328.16215122376343,413.0369706323831 M328.16215122376343,413.0369706323831 L329.8395246857326,412.0663307234298 M329.8395246857326,412.0663307234298 L331.8491725023056,411.76798979985824 M331.8491725023056,411.76798979985824 L334.09034970760933,412.1570145221853 M334.09034970760933,412.1570145221853 L336.45066534991366,413.21398586471037 M325.85656648581823,419.3427717810397 L325.88687362143764,447.9326400409915 M325.88687362143764,447.9326400409915 L297.63428625574807,431.5846723029115 M368.273479870437,390.71013089998036 L297.5162261755639,349.8584114321268 M368.29321137847194,431.6187722885121 L368.273479870437,390.71013089998036 M226.71953142511953,472.4818837478412 L254.97199261937328,488.8662693150228 M254.97199261937328,488.8662693150228 L254.9140045976649,460.2605134493745 M254.9140045976649,460.2605134493745 L255.1743354644879,457.6853783734315 M255.1743354644879,457.6853783734315 L255.95338806758926,455.5472721806747 M255.95338806758926,455.5472721806747 L257.2121799684201,453.9534422941983 M257.2121799684201,453.9534422941983 L258.88766731968684,452.9838864103025 M258.88766731968684,452.9838864103025 L260.89589318818025,452.6873243839623 M260.89589318818025,452.6873243839623 L263.1361840289858,453.0787338776736 M263.1361840289858,453.0787338776736 L265.4961934169641,454.1385764233277 M297.3386424930795,472.5844117347273 L265.4961934169641,454.1385764233277 M297.3386424930795,472.5844117347273 L297.2793158752278,431.65298638449406 M226.52232614726313,390.71013089998036 L297.2793158752278,431.65298638449406 M254.97199261937328,488.8662693150228 L325.88687362143764,447.9326400409915 M265.4961934169641,454.1385764233277 L336.45066534991366,413.21398586471037 M368.29321137847194,431.6187722885121 L297.3386424930795,472.5844117347273 M254.9140045976649,460.2605134493745 L325.85656648581823,419.3427717810397 M297.2793158752278,431.65298638449406 L368.273479870437,390.71013089998036" stroke="black"  stroke-width="4"  fill="red"/>
<path d="M381.28897635584616,327.2946526069604 L381.26409201067804,245.6848567436823 M331.2127343452579,298.4389785739251 L331.1323386279207,216.86152327957367 M381.28897635584616,327.2946526069604 L331.2127343452579,298.4389785739251 M381.26409201067804,245.6848567436823 L331.1323386279207,216.86152327957367 M337.8598025561954,294.61742739134496 L337.78678559522996,213.0442589543056 M331.2127343452579,298.4389785739251 L337.8598025561954,294.61742739134496 M331.1323386279207,216.86152327957367 L337.78678559522996,213.0442589543056 M360.99650552455796,307.94681511179283 L360.9491255766443,226.3586981556957 M337.8598025561954,294.61742739134496 L360.99650552455796,307.94681511179283 M337.78678559522996,213.0442589543056 L360.9491255766443,226.3586981556957 M386.2633727759655,293.40974552058134 L386.2440269615878,211.83793199463267 M360.99650552455796,307.94681511179283 L386.2633727759655,293.40974552058134 M360.9491255766443,226.3586981556957 L386.2440269615878,211.83793199463267 M363.1266577729749,280.0909358059449 L363.0816749054691,198.53407064715856 M386.2633727759655,293.40974552058134 L363.1266577729749,280.0909358059449 M386.2440269615878,211.83793199463267 L363.0816749054691,198.53407064715856 M369.7326631593756,276.2929925781335 L369.6950061197223,194.74039200799152 M363.1266577729749,280.0909358059449 L369.7326631593756,276.2929925781335 M363.0816749054691,198.53407064715856 L369.6950061197223,194.74039200799152 M419.80893205690813,305.11375575303623 L419.8267864789742,223.528815090622 M369.7326631593756,276.2929925781335 L419.80893205690813,305.11375575303623 M369.6950061197223,194.74039200799152 L419.8267864789742,223.528815090622 M413.20292466860195,308.91768454343827 L413.21345325615107,227.328479205662 M419.80893205690813,305.11375575303623 L413.20292466860195,308.91768454343827 M419.8267864789742,223.528815090622 L413.21345325615107,227.328479205662 M391.66321655243036,296.5182028680571 L391.6498568217053,214.94290210961887 M413.20292466860195,308.91768454343827 L391.66321655243036,296.5182028680571 M413.21345325615107,227.328479205662 L391.6498568217053,214.94290210961887 M366.39634745449325,311.0577417987829 L366.35495358408156,229.46613757658105 M391.66321655243036,296.5182028680571 L366.39634745449325,311.0577417987829 M391.6498568217053,214.94290210961887 L366.35495358408156,229.46613757658105 M387.93605182837626,323.4670756341142 L387.91854626377096,241.86156670540132 M366.39634745449325,311.0577417987829 L387.93605182837626,323.4670756341142 M366.35495358408156,229.46613757658105 L387.91854626377096,241.86156670540132 M387.93605182837626,323.4670756341142 L381.28897635584616,327.2946526069604 M387.91854626377096,241.86156670540132 L381.26409201067804,245.6848567436823" stroke="black"  stroke-width="4"  fill="red"/>
<path d="M178.5692016879815,439.062584811225 L178.31857516102704,357.32799833031265 M226.91629822542652,431.5846723029115 L226.71953142511953,349.8584114321268 M178.5692016879815,439.062584811225 L226.91629822542652,431.5846723029115 M178.31857516102704,357.32799833031265 L226.71953142511953,349.8584114321268 M239.98290947980334,403.70358353367686 L239.80082379033496,322.00839418336494 M226.91629822542652,431.5846723029115 L239.98290947980334,403.70358353367686 M226.71953142511953,349.8584114321268 L239.80082379033496,322.00839418336494 M204.76124937214257,383.3200174634133 L204.54011591055,301.64757393392557 M239.98290947980334,403.70358353367686 L204.76124937214257,383.3200174634133 M239.80082379033496,322.00839418336494 L204.54011591055,301.64757393392557 M156.47317189205785,390.7782930877317 L156.19831019510494,309.09752402534684 M204.76124937214257,383.3200174634133 L156.47317189205785,390.7782930877317 M204.54011591055,301.64757393392557 L156.19831019510494,309.09752402534684 M143.34776829300807,418.6397527701307 L143.05809475133287,336.92791225585 M156.47317189205785,390.7782930877317 L143.34776829300807,418.6397527701307 M156.19831019510494,309.09752402534684 L143.05809475133287,336.92791225585 M143.34776829300807,418.6397527701307 L178.5692016879815,439.062584811225 M143.05809475133287,336.92791225585 L178.31857516102704,357.32799833031265" stroke="black"  stroke-width="4"  fill="red"/>
<path d="M333.1892835636758,329.7383738459563 L333.1110127704044,248.12584144766893 M262.51075723957837,370.4090710544052 L262.35386778284317,288.7510477281291 M333.1892835636758,329.7383738459563 L340.5937796360013,335.19060881859343 M340.5937796360013,335.19060881859343 L345.51826363589555,341.5086946568295 M345.51826363589555,341.5086946568295 L347.6754793185141,348.3261319944471 M347.6754793185141,348.3261319944471 L346.9385548389905,355.2470459679814 M346.9385548389905,355.2470459679814 L343.3487311457803,361.8691083278881 M343.3487311457803,361.8691083278881 L337.11332305965186,367.8069494363008 M337.11332305965186,367.8069494363008 L328.59395736387717,372.7146617286738 M328.59395736387717,372.7146617286738 L318.285750498408,376.30610233133496 M318.285750498408,376.30610233133496 L306.7885321417509,378.3717359117981 M306.7885321417509,378.3717359117981 L294.7717927439513,378.7909867615608 M294.7717927439513,378.7909867615608 L282.93549384107604,377.53937614376594 M282.93549384107604,377.53937614376594 L271.96901411129477,374.6899742432091 M271.96901411129477,374.6899742432091 L262.51075723957837,370.4090710544052 M333.1110127704044,248.12584144766893 L340.5237164948025,253.57197218516856 M340.5237164948025,253.57197218516856 L345.4536557365789,259.8829866453401 M345.4536557365789,259.8829866453401 L347.6132548516939,266.6927964260171 M347.6132548516939,266.6927964260171 L346.87550014672183,273.6059699464031 M346.87550014672183,273.6059699464031 L343.2816772906274,280.2206288065072 M343.2816772906274,280.2206288065072 L337.0393305973209,286.1518336343058 M337.0393305973209,286.1518336343058 L328.5104884336725,291.05406255427556 M328.5104884336725,291.05406255427556 L318.1908179817029,294.64149137447407 M318.1908179817029,294.64149137447407 L306.68081681160896,296.70481791333515 M306.68081681160896,296.70481791333515 L294.65072119494073,297.1236005464422 M294.65072119494073,297.1236005464422 L282.8012724241493,295.8733877508628 M282.8012724241493,295.8733877508628 L271.82261672822915,293.0271684693293 M271.82261672822915,293.0271684693293 L262.35386778284317,288.7510477281291 M262.51075723957837,370.4090710544052 L255.11076743923877,364.94634933014265 M255.11076743923877,364.94634933014265 L250.19873472450217,358.6201859995982 M250.19873472450217,358.6201859995982 L248.05905099254286,351.79892401577854 M248.05905099254286,351.79892401577854 L248.81455985009504,344.87930755041947 M248.81455985009504,344.87930755041947 L252.41978149435437,338.2633783565503 M252.41978149435437,338.2633783565503 L258.6638669214574,332.3350971663393 M258.6638669214574,332.3350971663393 L267.1832014557133,327.43818147876664 M267.1832014557133,327.43818147876664 L277.48267579235795,323.8563007917504 M277.48267579235795,323.8563007917504 L288.96446078411935,321.7968003871204 M288.96446078411935,321.7968003871204 L300.96260827948015,321.3788547992775 M300.96260827948015,321.3788547992775 L312.78139732733,322.6266330084733 M312.78139732733,322.6266330084733 L323.73547243112637,325.46794965630687 M323.73547243112637,325.46794965630687 L333.1892835636758,329.7383738459563 M262.35386778284317,288.7510477281291 L254.94568038554064,283.29443034047756 M254.94568038554064,283.29443034047756 L250.02822011692913,276.97533845854656 M250.02822011692913,276.97533845854656 L247.8861919171737,270.16170406280816 M247.8861919171737,270.16170406280816 L248.64257230208005,263.2498280428757 M248.64257230208005,263.2498280428757 L252.25182730718328,256.64130229197394 M252.25182730718328,256.64130229197394 L258.5028705937368,250.71965729379093 M258.5028705937368,250.71965729379093 L267.03168149194323,245.82822487858257 M267.03168149194323,245.82822487858257 L277.34259997876137,242.25035588545504 M277.34259997876137,242.25035588545504 L288.83713346788375,240.19316246560518 M288.83713346788375,240.19316246560518 L300.84859585510003,239.775685078023 M300.84859585510003,239.775685078023 L312.6804958798494,241.0220655048112 M312.6804958798494,241.0220655048112 L323.6467194173959,243.8601996128328 M323.6467194173959,243.8601996128328 L333.1110127704044,248.12584144766893" stroke="black"  stroke-width="4"  fill="red"/>
<path d="M439.1293252239889,431.6187722885121 L509.84724755585927,390.74426885886254 M439.1293252239889,431.6187722885121 L439.14905673202384,390.71013089998036 M509.9063104268969,349.85841143212684 L439.14905673202384,390.71013089998036 M509.84724755585927,390.74426885886254 L509.9063104268969,349.85841143212684 M510.08389410938133,472.5844117347273 L439.1293252239889,431.6187722885121 M509.84724755585927,390.74426885886254 L580.8015529150227,431.6187722885121 M580.8015529150227,431.6187722885121 L510.08389410938133,472.5844117347273 M527.6399662230006,421.39161431933456 L522.8816730723161,419.2420006406736 M522.8816730723161,419.2420006406736 L517.3734839901417,417.81162203609176 M517.3734839901417,417.81162203609176 L511.43524600054616,417.1834293169835 M511.43524600054616,417.1834293169835 L505.4116829798486,417.3938459872276 M505.4116829798486,417.3938459872276 L499.6524723491088,418.43067623748544 M499.6524723491088,418.43067623748544 L494.4919801795562,420.2337919619681 M494.4919801795562,420.2337919619681 L490.2299325293401,422.6986112109487 M490.2299325293401,422.6986112109487 L487.114025033127,425.6821203165317 M487.114025033127,425.6821203165317 L485.3255265353044,429.01113266356447 M485.3255265353044,429.01113266356447 L484.96871640198475,432.4923146140768 M484.96871640198475,432.4923146140768 L486.06472337215075,435.9233750485805 M486.06472337215075,435.9233750485805 L488.5502325092635,439.1048351760529 M488.5502325092635,439.1048351760529 L492.2810681247813,441.8516262521031 M492.2810681247813,441.8516262521031 L497.04049836325873,444.00388699363975 M497.04049836325873,444.00388699363975 L502.55182290765765,445.43630624747544 M502.55182290765765,445.43630624747544 L508.49447643460996,446.0654657178297 M508.49447643460996,446.0654657178297 L514.5227167581445,445.8547165277482 M514.5227167581445,445.8547165277482 L520.2858069241879,444.8163375722848 M520.2858069241879,444.8163375722848 L525.4484853433071,443.010807846695 M525.4484853433071,443.010807846695 L529.7105251099329,440.5432623162857 M529.7105251099329,440.5432623162857 L532.8242323956629,437.5573392081982 M532.8242323956629,437.5573392081982 L534.6088424020584,434.22677815778115 M534.6088424020584,434.22677815778115 L534.9609733327918,430.74527149324786 M534.9609733327918,430.74527149324786 L533.8605564166623,427.3151778109581 M533.8605564166623,427.3151778109581 L531.371923618605,424.1357583336885 M531.371923618605,424.1357583336885 L527.6399662230006,421.39161431933456 M510.08389410938133,472.5844117347273 L510.14322072723303,431.65298638449406 M439.14905673202384,390.71013089998036 L510.14322072723303,431.65298638449406 M580.9002104551976,390.71013089998047 L509.9063104268969,349.85841143212684 M580.8015529150227,431.6187722885121 L580.9002104551976,390.71013089998047 M510.14322072723303,431.65298638449406 L580.9002104551976,390.71013089998047 M527.6399662230006,421.39161431933456 L527.7089880542017,380.48866892786504 M527.7089880542017,380.48866892786504 L531.4430292698278,383.23128428504606 M531.4430292698278,383.23128428504606 L533.933054487391,386.4089329152826 M533.933054487391,386.4089329152826 L535.0340912065135,389.8371164755965 M535.0340912065135,389.8371164755965 L534.681771020186,393.3166847523299 M534.681771020186,393.3166847523299 L532.8961732545636,396.6453918002521 M532.8961732545636,396.6453918002521 L529.7807367395228,399.6296530390654 M529.7807367395228,399.6296530390654 L525.5163265572332,402.0958254164769 M525.5163265572332,402.0958254164769 L520.350774294805,403.9003505080851 M520.350774294805,403.9003505080851 L514.5844740852581,404.9381517328253 M514.5844740852581,404.9381517328253 L508.55287444375796,405.1487836707808 M508.55287444375796,405.1487836707808 L502.6069080006825,404.5199742427022 M502.6069080006825,404.5199742427022 L497.0925098973758,403.0883519814749 M497.0925098973758,403.0883519814749 L492.33042437990724,400.9372888665077 M492.33042437990724,400.9372888665077 L488.59750619034196,398.19202644763095 M488.59750619034196,398.19202644763095 L486.11060811180425,395.0123371671922 M486.11060811180425,395.0123371671922 L485.0139862520437,391.58318685466463 M485.0139862520437,391.58318685466463 L485.3709908603013,388.103943294125 M485.3709908603013,388.103943294125 L487.16048145363663,384.7767849495867 M487.16048145363663,384.7767849495867 L490.27812063522475,381.7949377132773 M490.27812063522475,381.7949377132773 L494.54253871428807,379.3314916172939 M494.54253871428807,379.3314916172939 L499.7059022944316,377.5293805267926 M499.7059022944316,377.5293805267926 L505.4683186473659,376.49312800725806 M505.4683186473659,376.49312800725806 L511.49523576986155,376.28282858696696 M511.49523576986155,376.28282858696696 L517.4367817528314,376.9106712637996 M517.4367817528314,376.9106712637996 L522.9480408960981,378.34025287577316 M522.9480408960981,378.34025287577316 L527.7089880542017,380.48866892786504" stroke="black"  stroke-width="4"  fill="red"/>
<path d="M428.5356988990405,478.7371369768583 L428.54954640871745,437.8022940428894 M428.54954640871745,437.8022940428894 L432.28199908625,440.5534827605091 M432.28199908625,440.5534827605091 L434.76731434614015,443.7410665923173 M434.76731434614015,443.7410665923173 L435.8607921131657,447.1799706189729 M435.8607921131657,447.1799706189729 L435.4985076913496,450.6704186164397 M435.4985076913496,450.6704186164397 L433.7011061984335,454.00953923162297 M433.7011061984335,454.00953923162297 L430.572730060797,457.00313148755873 M430.572730060797,457.00313148755873 L426.2949767472141,459.477020397953 M426.2949767472141,459.477020397953 L421.1164722986147,461.28718736296145 M421.1164722986147,461.28718736296145 L415.33834513489387,462.32823828392367 M415.33834513489387,462.32823828392367 L409.29675080762115,462.53952767685274 M409.29675080762115,462.53952767685274 L403.3431920106581,461.9087521241869 M403.3431920106581,461.9087521241869 L397.8240519047897,460.47265144740123 M397.8240519047897,460.47265144740123 L393.0603506978469,458.3148587049475 M393.0603506978469,458.3148587049475 L389.329031733759,455.5610105003191 M389.329031733759,455.5610105003191 L386.84685892505644,452.371376438538 M386.84685892505644,452.371376438538 L385.7578124460503,448.9315011209814 M385.7578124460503,448.9315011209814 L386.124795066928,445.44137936971975 M386.124795066928,445.44137936971975 L387.92609736431785,442.10381472953003 M387.92609736431785,442.10381472953003 L391.0566765095082,439.11264780586 M391.0566765095082,439.11264780586 L395.3344303523486,436.6414979775962 M395.3344303523486,436.6414979775962 L400.51073273043306,434.83375634176736 M400.51073273043306,434.83375634176736 L406.2849596903247,433.7942614008449 M406.2849596903247,433.7942614008449 L412.3218559453443,433.58330607812934 M412.3218559453443,433.58330607812934 L418.27098307865197,434.2131103427984 M418.27098307865197,434.2131103427984 L423.7869799416462,435.6471607907495 M423.7869799416462,435.6471607907495 L428.54954640871745,437.8022940428894 M428.5356988990405,478.7371369768583 L423.77578825124607,476.5808061029119 M423.77578825124607,476.5808061029119 L418.26286673049515,475.1459586655182 M418.26286673049515,475.1459586655182 L412.31705603468885,474.5158043604152 M412.31705603468885,474.5158043604152 L406.28352499618893,474.7268769318404 M406.28352499618893,474.7268769318404 L400.51251690683006,475.7669496030474 M400.51251690683006,475.7669496030474 L395.3391003492936,477.5756958670301 M395.3391003492936,477.5756958670301 L391.0637317822527,480.04821884316215 M391.0637317822527,480.04821884316215 L387.93489873434265,483.04104762546643 M387.93489873434265,483.04104762546643 L386.1346016826361,486.38046625836637 M386.1346016826361,486.38046625836637 L385.7678246495508,489.87252638501934 M385.7678246495508,489.87252638501934 L386.85626467345594,493.31431180983753 M386.85626467345594,493.31431180983753 L389.33705380109365,496.5057167030053 M389.33705380109365,496.5057167030053 L393.0662919694503,499.2610935495941 M393.0662919694503,499.2610935495941 L397.82733609158015,501.4200839069144 M397.82733609158015,501.4200839069144 L403.343397350226,502.8569815677922 M403.343397350226,502.8569815677922 L409.2936347682174,503.48810715835737 M409.2936347682174,503.48810715835737 L415.3318586368177,503.27670051540736 M415.3318586368177,503.27670051540736 L421.10676258139233,502.2350718682211 M421.10676258139233,502.2350718682211 L426.2823787543663,500.42390028138783 M426.2823787543663,500.42390028138783 L430.55774679303477,497.9486382302731 M430.55774679303477,497.9486382302731 L433.68437929003557,494.95338412203165 M433.68437929003557,494.95338412203165 L435.48077988688584,491.61240951819843 M435.48077988688584,491.61240951819843 L435.8428639632739,488.1200231483745 M435.8428639632739,488.1200231483745 L434.74999759219133,484.6792090119229 M434.74999759219133,484.6792090119229 L432.2660695170216,481.4898543433782 M432.2660695170216,481.4898543433782 L428.5356988990405,478.7371369768583" stroke="black"  stroke-width="4"  fill="red"/>
<path d="M633.6086252744205,319.27924694305375 L636.7327695117822,321.4619789012184 M636.7327695117822,321.4619789012184 L639.060027438328,323.9525602045206 M639.060027438328,323.9525602045206 L640.5008665476189,326.65537205533747 M640.5008665476189,326.65537205533747 L640.9997170237032,329.466632665498 M640.9997170237032,329.466632665498 L686.4260693380047,411.1701475899841 M686.4260693380047,411.1701475899841 L650.949364710403,390.7782930877317 M633.6086252744205,319.27924694305375 L650.949364710403,390.7782930877317 M640.9997170237032,329.466632665498 L640.3932080737895,332.6736928598898 M640.3932080737895,332.6736928598898 L638.5623845440505,335.7204623602962 M638.5623845440505,335.7204623602962 L635.5987584217473,338.4540356132399 M635.5987584217473,338.4540356132399 L631.6508335572923,340.7371810628025 M631.6508335572923,340.7371810628025 L626.9165644924487,342.4552311930705 M626.9165644924487,342.4552311930705 L621.6334704570745,343.52184630135804 M621.6334704570745,343.52184630135804 L616.0667407117814,343.8834479099196 M616.0667407117814,343.8834479099196 L611.1827748233861,343.6063270024871 M611.1827748233861,343.6063270024871 L606.4835060190551,342.78563658149176 M606.4835060190551,342.78563658149176 L602.1496992794962,341.4529842694676 M602.1496992794962,341.4529842694676 L598.3480228397607,339.65968591824685 M598.3480228397607,339.65968591824685 L595.2246149365728,337.47478508937735 M595.2246149365728,337.47478508937735 L592.8994723210262,334.9823689934233 M592.8994723210262,334.9823689934233 L591.4618246018811,332.2783246910791 M591.4618246018811,332.2783246910791 L590.966736597273,329.466632665498 M590.966736597273,329.466632665498 L591.5775107219645,326.2601298457246 M591.5775107219645,326.2601298457246 L593.4117733627002,323.2149368541565 M593.4117733627002,323.2149368541565 L596.377305620909,320.48363221552285 M596.377305620909,320.48363221552285 L600.3252450968266,318.20300905266384 M600.3252450968266,318.20300905266384 L605.0576343545772,316.48723532008864 M605.0576343545772,316.48723532008864 L610.337307498572,315.4221889396983 M610.337307498572,315.4221889396983 L615.899778571076,315.06115248255634 M615.899778571076,315.06115248255634 L620.7799769892508,315.3378419764474 M620.7799769892508,315.3378419764474 L625.4760401695098,316.15730771716994 M625.4760401695098,316.15730771716994 L629.8077102960581,317.4881174653746 M629.8077102960581,317.4881174653746 L633.6086252744205,319.27924694305375 M644.1791611110286,435.67030099796034 L686.4260693380047,411.1701475899841 M637.935556472549,403.44059410807137 L644.1791611110286,435.67030099796034 M623.4427103087057,395.03429238761174 L626.1935032227198,394.23519396525296 M626.1935032227198,394.23519396525296 L628.9447544654872,394.1329682400347 M628.9447544654872,394.1329682400347 L631.6492793455091,394.8027272103949 M631.6492793455091,394.8027272103949 L633.974072248164,396.2118774996791 M633.974072248164,396.2118774996791 L635.4995834563147,397.80075536161786 M635.4995834563147,397.80075536161786 L636.7420231327876,399.8143179486605 M636.7420231327876,399.8143179486605 L637.4349031317583,401.52106621264926 M637.4349031317583,401.52106621264926 L637.935556472549,403.44059410807137 M616.0249823203549,397.9633144802624 L623.4427103087057,395.03429238761174 M616.0667407117814,343.8834479099196 L616.0249823203549,397.9633144802624 M573.2647918017392,394.8548521841393 L644.1791611110286,435.67030099796034 M615.5120348937085,370.4090710544052 L573.2647918017392,394.8548521841393 M650.949364710403,390.7782930877317 L615.5120348937085,370.4090710544052 M615.899778571076,315.06115248255634 L615.5120348937085,370.4090710544052 M589.4234099526636,385.64134878659434 L602.111723099383,392.1940081482408 M602.111723099383,392.1940081482408 L616.0249823203549,397.9633144802624 M598.3480228397607,339.65968591824685 L589.4234099526636,385.64134878659434 M568.0049461582014,370.3410981641292 L578.0330177352696,378.3424999590691 M578.0330177352696,378.3424999590691 L589.4234099526636,385.64134878659434 M590.966736597273,329.466632665498 L568.0049461582014,370.3410981641292 M573.0567863585406,366.05684383964916 L568.0049461582014,370.3410981641292 M579.6551249515458,369.9228702336668 L580.0267884934949,367.45923484900493 M580.0267884934949,367.45923484900493 L579.7900667667423,365.6812242722333 M579.7900667667423,365.6812242722333 L579.1197653785207,364.5823005363692 M579.1197653785207,364.5823005363692 L578.1701473274643,364.0591139624122 M578.1701473274643,364.0591139624122 L577.2244670387959,363.9903794338178 M577.2244670387959,363.9903794338178 L575.9854276668002,364.2852691089484 M575.9854276668002,364.2852691089484 L574.572928460032,364.9851724969452 M574.572928460032,364.9851724969452 L573.0567863585406,366.05684383964916 M579.6551249515458,369.9228702336668 L573.2647918017392,394.8548521841393 M579.6551249515458,369.9228702336668 L637.935556472549,403.44059410807137 M573.0567863585406,366.05684383964916 L623.4427103087057,395.03429238761174" stroke="black"  stroke-width="4"  fill="red"/>
<path d="M318.5941894877502,542.2164632315771 L318.4991715386393,460.36737459407846 M247.48909090314675,583.3604421043145 L247.31450196997946,501.46586273171874 M318.5941894877502,542.2164632315771 L247.48909090314675,583.3604421043145 M318.4991715386393,460.36737459407846 L247.31450196997946,501.46586273171874 M237.05541008755733,613.1596254312686 L236.86901021950456,531.232162627564 M247.48909090314675,583.3604421043145 L237.05541008755733,613.1596254312686 M247.31450196997946,501.46586273171874 L236.86901021950456,531.232162627564 M243.7510916877998,626.660599987214 L243.57211526641413,544.7182565301895 M237.05541008755733,613.1596254312686 L236.44156451272968,616.0668531868447 M236.44156451272968,616.0668531868447 L236.83992016810313,618.9855942961935 M236.83992016810313,618.9855942961935 L238.23460144989082,621.7982705982802 M238.23460144989082,621.7982705982802 L240.5696335703009,624.3914735846148 M240.5696335703009,624.3914735846148 L243.7510916877998,626.660599987214 M236.86901021950456,531.232162627564 L236.25446333042117,534.1361851309289 M236.25446333042117,534.1361851309289 L236.65324980198596,537.0517088089275 M236.65324980198596,537.0517088089275 L238.04947712890447,539.8612850863705 M238.04947712890447,539.8612850863705 L240.38710870038022,542.4516303673147 M240.38710870038022,542.4516303673147 L243.57211526641413,544.7182565301895 M266.99302760841334,630.5848335184423 L266.8400398820875,548.6381668751808 M243.7510916877998,626.660599987214 L247.65081765781167,628.5141062576591 M247.65081765781167,628.5141062576591 L252.11166923050808,629.8771655189365 M252.11166923050808,629.8771655189365 L256.95376755878846,630.6947579255203 M256.95376755878846,630.6947579255203 L261.9817970507429,630.9338749130081 M261.9817970507429,630.9338749130081 L266.99302760841334,630.5848335184423 M243.57211526641413,544.7182565301895 L247.47619579525966,546.5697207436518 M247.47619579525966,546.5697207436518 L251.94203251554072,547.9312784190631 M251.94203251554072,547.9312784190631 L256.78954541020414,548.7479701959294 M256.78954541020414,548.7479701959294 L261.82320025685874,548.9868237885852 M261.82320025685874,548.9868237885852 L266.8400398820875,548.6381668751808 M318.40394121145715,624.5963833795389 L318.30849779336614,542.6563143693314 M266.99302760841334,630.5848335184423 L318.40394121145715,624.5963833795389 M266.8400398820875,548.6381668751808 L318.30849779336614,542.6563143693314 M389.5092521741319,583.3604421043145 L389.4933804529349,501.46586273171874 M318.40394121145715,624.5963833795389 L389.5092521741319,583.3604421043145 M318.30849779336614,542.6563143693314 L389.4933804529349,501.46586273171874 M389.5092521741319,583.3604421043145 L318.5941894877502,542.2164632315771 M389.4933804529349,501.46586273171874 L318.4991715386393,460.36737459407846" stroke="black"  stroke-width="4"  fill="red"/>
<path d="M66.43266179638647,391.7777394699119 L66.28277276436097,359.12676569118594 M138.88682936170397,380.5908553680386 L138.7691753653961,347.9448669371684 M66.43266179638647,391.7777394699119 L138.88682936170397,380.5908553680386 M66.28277276436097,359.12676569118594 L138.7691753653961,347.9448669371684 M13.776401272476335,361.2307190602556 L13.6032556964513,328.5933654803678 M13.776401272476335,361.2307190602556 L66.43266179638647,391.7777394699119 M13.6032556964513,328.5933654803678 L66.28277276436097,359.12676569118594 M158.55217004531505,338.9009644391233 L158.4433766001615,306.2735814610593 M138.88682936170397,380.5908553680386 L158.55217004531505,338.9009644391233 M138.7691753653961,347.9448669371684 L158.4433766001615,306.2735814610593 M158.55217004531505,338.9009644391233 L105.89514816112984,308.4418522477741 M105.89514816112984,308.4418522477741 L33.57343651991732,319.58478609732447 M33.57343651991732,319.58478609732447 L13.776401272476335,361.2307190602556 M57.8084071947564,366.3379392286344 L65.35488083528236,369.76182331001957 M65.35488083528236,369.76182331001957 L74.11391746065186,372.040695525371 M74.11391746065186,372.040695525371 L83.57577529686307,373.0416771027375 M83.57577529686307,373.0416771027375 L93.18961406429742,372.70637686928626 M93.18961406429742,372.70637686928626 L102.39569657796017,371.0543612570941 M102.39569657796017,371.0543612570941 L110.65814011779901,368.1819726188235 M110.65814011779901,368.1819726188235 L117.49628690508007,364.2566716874661 M117.49628690508007,364.2566716874661 L122.5127409120023,359.50716443826224 M122.5127409120023,359.50716443826224 L125.41640987858767,354.2100059148588 M125.41640987858767,354.2100059148588 L126.03940946673737,348.6733781030065 M126.03940946673737,348.6733781030065 L124.34652838648697,343.21912208484565 M124.34652838648697,343.21912208484565 L120.43711713706898,338.16400980202695 M120.43711713706898,338.16400980202695 L114.53907187543552,333.80138506502857 M114.53907187543552,333.80138506502857 L106.99540230513185,330.3842138981124 M106.99540230513185,330.3842138981124 L98.24427724123274,328.11050988577944 M98.24427724123274,328.11050988577944 L88.7935938833092,327.1119708228128 M88.7935938833092,327.1119708228128 L79.19167641970876,327.44644590548984 M79.19167641970876,327.44644590548984 L69.9954873058283,329.0945246638521 M69.9954873058283,329.0945246638521 L61.738661136879784,331.96079882782544 M61.738661136879784,331.96079882782544 L54.9005741880909,335.8791899408089 M54.9005741880909,335.8791899408089 L49.87860878059257,340.6225749658451 M49.87860878059257,340.6225749658451 L46.96511440272411,345.9158198948884 M46.96511440272411,345.9158198948884 L46.33020794140316,351.4516070625563 M46.33020794140316,351.4516070625563 L48.011872106954286,356.9083210965653 M48.011872106954286,356.9083210965653 L51.9132822112806,361.96860933827924 M51.9132822112806,361.96860933827924 L57.8084071947564,366.3379392286344 M33.57343651991732,319.58478609732447 L33.40926827385363,286.9660378449075 M33.40926827385363,286.9660378449075 L13.6032556964513,328.5933654803678 M105.89514816112984,308.4418522477741 L105.76309715759436,275.8280892213878 M158.4433766001615,306.2735814610593 L105.76309715759436,275.8280892213878 M105.76309715759436,275.8280892213878 L33.40926827385363,286.9660378449075 M57.8084071947564,366.3379392286344 L58.57444165629215,529.1023996991787 M58.57444165629215,529.1023996991787 L66.10427270887965,532.5338597415697 M66.10427270887965,532.5338597415697 L74.84395506365632,534.8177735863226 M74.84395506365632,534.8177735863226 L84.284874778257,535.8209694718951 M84.284874778257,535.8209694718951 L93.87741263975471,535.4849275219564 M93.87741263975471,535.4849275219564 L103.06307389831034,533.8292572930861 M103.06307389831034,533.8292572930861 L111.30716642277628,530.9505135220817 M111.30716642277628,530.9505135220817 L118.13010105095998,527.016526284948 M118.13010105095998,527.016526284948 L123.13536582198117,522.2565063492618 M123.13536582198117,522.2565063492618 L126.03251672949534,516.9476197332096 M126.03251672949534,516.9476197332096 L126.65404446910861,511.39873000595105 M126.65404446910861,511.39873000595105 L124.96481884111506,505.93239087308706 M124.96481884111506,505.93239087308706 L121.06397364227439,500.8660765061608 M121.06397364227439,500.8660765061608 L115.17890414985925,496.4937817452762 M115.17890414985925,496.4937817452762 L107.65186488016775,493.06903460137914 M107.65186488016775,493.06903460137914 L98.92005921291673,490.7902889321124 M98.92005921291673,490.7902889321124 L89.49026457642464,489.7895355347837 M89.49026457642464,489.7895355347837 L79.90959531266185,490.12475235418026 M79.90959531266185,490.12475235418026 L70.73378361224525,491.77648571782515 M70.73378361224525,491.77648571782515 L62.495283485181574,494.64911504552816 M62.495283485181574,494.64911504552816 L55.67240829899612,498.576192489586 M55.67240829899612,498.576192489586 L50.66165639871707,503.3300902149093 M50.66165639871707,503.3300902149093 L47.754723471057105,508.63506327673895 M47.754723471057105,508.63506327673895 L47.12134146874206,514.1831123456798 M47.12134146874206,514.1831123456798 L48.79939986339792,519.6519095026063 M48.79939986339792,519.6519095026063 L52.692279384687765,524.7233998180883 M52.692279384687765,524.7233998180883 L58.57444165629215,529.1023996991787" stroke="black"  stroke-width="4"  fill="red"/>
<path d="M262.8234903317206,289.1577576339838 L262.6672954559147,207.59071516063756 M192.14531746250125,329.73837190877646 L191.91050508644406,248.1258395126581 M262.8234903317206,289.1577576339838 L192.14531746250125,329.73837190877646 M262.6672954559147,207.59071516063756 L191.91050508644406,248.1258395126581 M121.9357224690487,289.15775376820034 L121.62333272867477,207.59071129919218 M192.14531746250125,329.73837190877646 L121.9357224690487,289.15775376820034 M191.91050508644406,248.1258395126581 L121.62333272867477,207.59071129919218 M192.61337699250322,248.66691961348474 L192.37960302647895,167.14536573864893 M121.9357224690487,289.15775376820034 L192.61337699250322,248.66691961348474 M121.62333272867477,207.59071129919218 L192.37960302647895,167.14536573864893 M192.61337699250322,248.66691961348474 L262.8234903317206,289.1577576339838 M192.37960302647895,167.14536573864893 L262.6672954559147,207.59071516063756" stroke="black"  stroke-width="4"  fill="red"/>
<path d="M538.5100385925766,488.9962539041233 L609.2275424506236,447.9940746874671 M538.5100385925766,488.9962539041233 L538.5852527262064,448.0557150073491 M609.3420872472736,407.0763197047364 L538.5852527262064,448.0557150073491 M609.2275424506236,447.9940746874671 L609.3420872472736,407.0763197047364 M609.2275424506236,447.9940746874671 L634.1210741057903,462.33444120736556 M563.403729137902,503.3686328415903 L538.5100385925766,488.9962539041233 M634.1210741057903,462.33444120736556 L563.403729137902,503.3686328415903 M574.0498931936802,521.8083298919114 L573.7885986623721,518.9223075485482 M573.7885986623721,518.9223075485482 L573.005082534258,515.8717092997094 M573.005082534258,515.8717092997094 L571.7386296753641,512.809594516942 M571.7386296753641,512.809594516942 L570.0527833257634,509.88962298567907 M570.0527833257634,509.88962298567907 L568.0321347514528,507.2583149946344 M568.0321347514528,507.2583149946344 L565.7780847967936,505.0476924976063 M565.7780847967936,505.0476924976063 L563.403729137902,503.3686328415903 M574.0498931936802,521.8083298919114 L573.9833991955625,550.437916783707 M573.9833991955625,550.437916783707 L609.5715603182991,571.0076063985659 M609.5715603182991,571.0076063985659 L609.8015461210218,489.12667414708073 M538.5852527262064,448.0557150073491 L609.8015461210218,489.12667414708073 M680.2492661941849,529.8911562621652 L644.6613828212087,509.36728651660565 M644.6613828212087,509.36728651660565 L644.7553728352316,480.753586909623 M644.7553728352316,480.753586909623 L644.4967035330028,477.86942596670207 M644.4967035330028,477.86942596670207 L643.7156850041408,474.82128478252935 M643.7156850041408,474.82128478252935 L642.4514767972366,471.76209937507593 M642.4514767972366,471.76209937507593 L640.7675094786655,468.8453824210251 M640.7675094786655,468.8453824210251 L638.7482799606066,466.2174907878091 M638.7482799606066,466.2174907878091 L636.4951178107601,464.0102749157972 M636.4951178107601,464.0102749157972 L634.1210741057903,462.33444120736556 M680.5578679103919,448.0557150073491 L609.3420872472736,407.0763197047364 M680.2492661941849,529.8911562621652 L680.5578679103919,448.0557150073491 M644.7553728352316,480.753586909623 L574.0498931936802,521.8083298919114 M644.6613828212087,509.36728651660565 L573.9833991955625,550.437916783707 M609.5715603182991,571.0076063985659 L680.2492661941849,529.8911562621652 M609.8015461210218,489.12667414708073 L680.5578679103919,448.0557150073491" stroke="black"  stroke-width="4"  fill="red"/>
<path d="M503.0366779895908,550.437916783707 L503.1475817520834,468.57972992805804 M432.1216435729027,591.6002635096452 L432.15340120231434,509.69658611059157 M503.0366779895908,550.437916783707 L432.1216435729027,591.6002635096452 M503.1475817520834,468.57972992805804 L432.15340120231434,509.69658611059157 M503.25873345502424,632.8546342613511 L503.3701339308006,550.9054674860135 M432.1216435729027,591.6002635096452 L503.25873345502424,632.8546342613511 M432.15340120231434,509.69658611059157 L503.3701339308006,550.9054674860135 M574.1735199312641,591.6002635096452 L574.364065707734,509.69658611059157 M503.25873345502424,632.8546342613511 L574.1735199312641,591.6002635096452 M503.3701339308006,550.9054674860135 L574.364065707734,509.69658611059157 M574.1735199312641,591.6002635096452 L503.0366779895908,550.437916783707 M574.364065707734,509.69658611059157 L503.1475817520834,468.57972992805804" stroke="black"  stroke-width="4"  fill="red"/>
<path d="M680.0490437507092,460.2605134493745 L467.6953389466027,583.562509507768 M679.9413517103937,488.8662693150228 L680.0490437507092,460.2605134493745 M679.9413517103937,488.8662693150228 L467.67032003840706,612.2159266056545 M467.67032003840706,612.2159266056545 L467.6953389466027,583.562509507768 M467.6953389466027,583.562509507768 L467.6965664140089,581.2367091451125 M467.6965664140089,581.2367091451125 L467.6931499930364,578.686059374094 M467.6931499930364,578.686059374094 L467.6776927476074,576.0822050170434 M467.6776927476074,576.0822050170434 L467.64276633216633,573.5285021591849 M467.64276633216633,573.5285021591849 L467.58220227042005,571.0530549228297 M467.58220227042005,571.0530549228297 L467.4544804843754,567.9311888568308 M467.4544804843754,567.9311888568308 L467.2409504002956,564.7175082481185 M467.2409504002956,564.7175082481185 L466.9588862289728,561.924909543904 M466.9588862289728,561.924909543904 L466.60857261759605,559.5346413890352 M669.420667771883,441.8516262521031 L466.60857261759605,559.5346413890352 M680.0490437507092,460.2605134493745 L679.7916829209832,457.37728278312323 M679.7916829209832,457.37728278312323 L679.0119097488098,454.3303688659299 M679.0119097488098,454.3303688659299 L677.7488212969229,451.2726461025393 M677.7488212969229,451.2726461025393 L676.0657919239766,448.3575537179651 M676.0657919239766,448.3575537179651 L674.0472714441298,445.731367005627 M674.0472714441298,445.731367005627 L671.7945538113977,443.5258508128457 M671.7945538113977,443.5258508128457 L669.420667771883,441.8516262521031 M644.3932433659227,468.38806651050385 L679.9413517103937,488.8662693150228 M644.5272384528087,427.5272258478869 L669.420667771883,441.8516262521031 M644.3932433659227,468.38806651050385 L644.5272384528087,427.5272258478869 M212.3472107749458,513.4702310400021 L495.4406962582537,350.0624438319865 M382.39158438883817,612.2159266056545 L212.3472107749458,513.4702310400021 M382.39158438883817,612.2159266056545 L392.9502144910217,607.3292010250988 M392.9502144910217,607.3292010250988 L405.1144195100123,603.929310768178 M405.1144195100123,603.929310768178 L418.2754041527532,602.1858941439176 M418.2754041527532,602.1858941439176 L431.7749185906085,602.1858941439176 M431.7749185906085,602.1858941439176 L444.9379163574641,603.929310768178 M444.9379163574641,603.929310768178 L457.10604723156473,607.3292010250989 M457.10604723156473,607.3292010250989 L467.67032003840706,612.2159266056545 M672.5890824129569,452.0219050522271 L644.3932433659227,468.38806651050385 M495.4406962582537,350.0624438319865 L672.5890824129569,452.0219050522271 M382.38324475277295,583.5625095077679 L392.94600563914787,578.6776659854168 M392.94600563914787,578.6776659854168 L405.1149682584595,575.2790854499267 M405.1149682584595,575.2790854499267 L418.2810996681938,573.5363405276233 M418.2810996681938,573.5363405276233 L431.7858932859265,573.5363405276233 M431.7858932859265,573.5363405276233 L444.95403939464296,575.2790854499267 M444.95403939464296,575.2790854499267 L457.12693094047626,578.6776659854168 M457.12693094047626,578.6776659854168 L467.6953389466027,583.562509507768 M382.38324475277295,583.5625095077679 L382.39158438883817,612.2159266056545 M382.38324475277295,583.5625095077679 L382.3830435218533,581.2367091451126 M382.3830435218533,581.2367091451126 L382.38701195459464,578.6860593740939 M382.38701195459464,578.6860593740939 L382.40257886363264,576.0822050170434 M382.40257886363264,576.0822050170434 L382.43724655870506,573.5285021591848 M382.43724655870506,573.5285021591848 L382.49724704231386,571.0530549228297 M382.49724704231386,571.0530549228297 L382.6238270566925,567.9311888568308 M382.6238270566925,567.9311888568308 L382.8356349294678,564.7175082481185 M382.8356349294678,564.7175082481185 L383.11564007247375,561.924909543904 M383.11564007247375,561.924909543904 L383.46358340027274,559.5346413890352 M383.46358340027274,559.5346413890352 L396.4173354183796,555.5618278975077 M396.4173354183796,555.5618278975077 L410.4496161330219,553.1169047744291 M410.4496161330219,553.1169047744291 L425.03188925928436,552.2916060536736 M425.03188925928436,552.2916060536736 L439.6151169493637,553.116904774429 M439.6151169493637,553.116904774429 L453.65022553116444,555.5618278975077 M453.65022553116444,555.5618278975077 L466.60857261759605,559.5346413890352 M662.1623512326614,417.3023449448941 L644.5272384528087,427.5272258478869 M495.5221701589594,321.4659109864266 L662.1623512326614,417.3023449448941 M233.51506700818894,472.5844117347273 L495.5221701589594,321.4659109864266 M383.46358340027274,559.5346413890352 L233.51506700818894,472.5844117347273 M672.6938030883468,423.43044802682476 L672.4387001169716,420.85636990341595 M672.4387001169716,420.85636990341595 L671.6661490333513,418.71865302897976 M671.6661490333513,418.71865302897976 L670.4148194631575,417.12451772329155 M670.4148194631575,417.12451772329155 L668.7473650297211,416.1539862570371 M668.7473650297211,416.1539862570371 L666.7473444643822,415.8558246003412 M666.7473444643822,415.8558246003412 L664.5150247113429,416.2450876093451 M664.5150247113429,416.2450876093451 L662.1623512326614,417.3023449448941 M672.6938030883468,423.43044802682476 L672.5890824129569,452.0219050522271 M212.3472107749458,513.4702310400021 L212.2725550093166,484.85494269158534 M212.2725550093166,484.85494269158534 L495.47632329014067,321.5107058668256 M495.4406962582537,350.0624438319865 L495.47632329014067,321.5107058668256 M382.38324475277295,583.5625095077679 L212.2725550093166,484.85494269158534 M495.47632329014067,321.5107058668256 L672.6938030883468,423.43044802682476 M233.51506700818894,472.5844117347273 L228.08381534909103,472.99122496232695 M228.08381534909103,472.99122496232695 L223.0146987503423,474.1846753963257 M223.0146987503423,474.1846753963257 L218.6439065589188,476.08556914236 M218.6439065589188,476.08556914236 L215.54806908611587,478.2978466192446 M215.54806908611587,478.2978466192446 L213.5854635009414,480.5939765516965 M213.5854635009414,480.5939765516965 L212.6005216134438,482.6905766694322 M212.6005216134438,482.6905766694322 L212.2725550093166,484.85494269158534 M495.5221701589594,321.4659109864266 L495.51385309727635,318.75635256046746 M495.51385309727635,318.75635256046746 L495.50508128633385,317.038741437211 M495.50508128633385,317.038741437211 L495.4964272340622,316.4266679476833 M495.4964272340622,316.4266679476833 L495.48921493391344,316.8558837052292 M495.48921493391344,316.8558837052292 L495.4835334104144,318.01831187774366 M495.4835334104144,318.01831187774366 L495.4794975685662,319.54242870183606 M495.4794975685662,319.54242870183606 L495.47632329014067,321.5107058668256" stroke="black"  stroke-width="4"  fill="red"/>
<path d="M714.8358270233366,427.4999519290487 L715.1820595614204,345.77824025224714 M644.3932433659227,468.38806651050385 L644.6613828212087,386.6208628583287 M714.8358270233366,427.4999519290487 L644.3932433659227,468.38806651050385 M715.1820595614204,345.77824025224714 L644.6613828212087,386.6208628583287 M715.5290635623787,509.36728651660565 L715.8768416075061,427.55459102453966 M644.3932433659227,468.38806651050385 L715.5290635623787,509.36728651660565 M644.6613828212087,386.6208628583287 L715.8768416075061,427.55459102453966 M785.9708757569181,468.38806651050385 L786.3967443035488,386.6208628583287 M715.5290635623787,509.36728651660565 L785.9708757569181,468.38806651050385 M715.8768416075061,427.55459102453966 L786.3967443035488,386.6208628583287 M785.9708757569181,468.38806651050385 L714.8358270233366,427.4999519290487 M786.3967443035488,386.6208628583287 L715.1820595614204,345.77824025224714" stroke="black"  stroke-width="4"  fill="red"/></svg>