<svg viewBox="0 0 800 800" xmlns="http://www.w3.org/2000/svg"><path d="M584.3047398957622,338.41531258436527 L565.977845910754,348.99634976001937 M595.2727565384948,344.7971303458892 L595.0024327232761,342.12443207653786 M595.0024327232761,342.12443207653786 L594.1946230135165,339.903744047071 M594.1946230135165,339.903744047071 L592.8897624829735,338.24644788679177 M592.8897624829735,338.24644788679177 L591.1531855929084,337.2357359364582 M591.1531855929084,337.2357359364582 L589.0719152872707,336.9223924506887 M589.0719152872707,336.9223924506887 L586.750292065147,337.3222372483598 M586.750292065147,337.3222372483598 L584.3047398957622,338.41531258436527 M595.2727565384948,344.7971303458892 L595.2185722163299,374.4784273863692 M595.2185722163299,374.4784273863692 L639.1226683984987,349.10218981754605 M639.1226683984987,349.10218981754605 L639.3262445862965,264.2655951226832 M566.0390885647977,306.5308359396851 L639.3262445862965,264.2655951226832 M565.977845910754,348.99634976001937 L566.0390885647977,306.5308359396851 M551.213565873933,319.3842476076142 L584.3047398957622,338.41531258436527 M532.8866433573994,329.9547131435624 L551.213565873933,319.3842476076142 M565.977845910754,348.99634976001937 L532.8866433573994,329.9547131435624 M551.1659211260394,319.43079911349747 L595.2727565384948,344.7971303458892 M551.213565873933,319.3842476076142 L551.2049226597438,316.568434195829 M551.2049226597438,316.568434195829 L551.1958068633612,314.78346717287764 M551.1958068633612,314.78346717287764 L551.1868134435408,314.1473913000349 M551.1868134435408,314.1473913000349 L551.1793183139675,314.59343869841103 M551.1793183139675,314.59343869841103 L551.173413990254,315.80145134248045 M551.173413990254,315.80145134248045 L551.1692198833857,317.38533621216646 M551.1692198833857,317.38533621216646 L551.1659211260394,319.43079911349747 M551.1288969846707,349.10218981754605 L551.1659211260394,319.43079911349747 M551.1288969846707,349.10218981754605 L595.2185722163299,374.4784273863692 M521.8269352983141,366.0159266767572 L551.1288969846707,349.10218981754605 M492.4663827087853,349.10218981754605 L521.8269352983141,366.0159266767572 M565.672650523983,306.8834411088612 L492.4663827087853,349.10218981754605 M639.1226683984987,349.10218981754605 L565.672650523983,306.8834411088612 M565.672650523983,306.8834411088612 L565.794525553642,222.09412078558597 M639.3262445862965,264.2655951226832 L565.794525553642,222.09412078558597 M521.8269352983141,366.0159266767572 L521.8525901619323,336.3379317557995 M521.8525901619323,336.3379317557995 L522.1313281589414,333.66547815242564 M522.1313281589414,333.66547815242564 L522.9487213796035,331.44487927069434 M522.9487213796035,331.44487927069434 L524.2638678209435,329.7875199565339 M524.2638678209435,329.7875199565339 L526.0109004480216,328.77658590562123 M526.0109004480216,328.77658590562123 L528.1022766559659,328.46287515447443 M528.1022766559659,328.46287515447443 L530.4331540968831,328.8622288304759 M530.4331540968831,328.8622288304759 L532.8866433573994,329.9547131435624 M492.5070979463449,264.2655951226832 L566.0390885647977,306.5308359396851 M492.4663827087853,349.10218981754605 L492.5070979463449,264.2655951226832 M521.8525901619323,336.3379317557995 L551.1659211260394,319.43079911349747 M565.794525553642,222.09412078558597 L492.5070979463449,264.2655951226832" stroke="black"  stroke-width="4"  fill="red"/>
<path d="M455.802311286357,370.2467074144317 L455.802311286357,285.3864751865127 M382.35195487009224,412.606224333526 L382.27025258264365,327.6987165602135 M455.802311286357,370.2467074144317 L382.35195487009224,412.606224333526 M455.802311286357,285.3864751865127 L382.27025258264365,327.6987165602135 M496.2022517564398,351.11326263681974 L529.2934961386509,370.17606897598966 M485.17429496850673,357.492975605578 L485.45167459252076,354.81991042416513 M485.45167459252076,354.81991042416513 L486.2677779140038,352.5990838892126 M486.2677779140038,352.5990838892126 L487.5817676512103,350.94189233378444 M487.5817676512103,350.94189233378444 L489.3278348317807,349.9315131455675 M489.3278348317807,349.9315131455675 L491.4184853298167,349.6187166546617 M491.4184853298167,349.6187166546617 L493.7489132484659,350.01929824860485 M493.7489132484659,350.01929824860485 L496.2022517564398,351.11326263681974 M485.17429496850673,357.492975605578 L485.1628801402936,387.1792258364548 M485.1628801402936,387.1792258364548 L455.802311286357,370.2467074144317 M529.3343699900703,327.6987165602135 L455.802311286357,285.3864751865127 M529.2934961386509,370.17606897598966 L529.3343699900703,327.6987165602135 M382.35195487009224,412.606224333526 L411.712501965789,429.57639985335885 M411.712501965789,429.57639985335885 L411.69534162854995,399.8736389309892 M411.69534162854995,399.8736389309892 L411.96999492091004,397.19935146800907 M411.96999492091004,397.19935146800907 L412.78350831577404,394.97807222633537 M412.78350831577404,394.97807222633537 L414.095174481664,393.3212203834577 M414.095174481664,393.3212203834577 L415.8393010811574,392.31195650132867 M415.8393010811574,392.31195650132867 L417.92849143244064,392.00099521795613 M417.92849143244064,392.00099521795613 L420.2580129787997,392.40404010631215 M420.2580129787997,392.40404010631215 L422.7110444210283,393.5009725010027 M455.802311286357,412.606224333526 L422.7110444210283,393.5009725010027 M455.802311286357,412.606224333526 L455.802311286357,370.10519455167304 M382.27025258264365,327.6987165602135 L455.802311286357,370.10519455167304 M411.712501965789,429.57639985335885 L485.1628801402936,387.1792258364548 M422.7110444210283,393.5009725010027 L496.2022517564398,351.11326263681974 M529.2934961386509,370.17606897598966 L455.802311286357,412.606224333526 M411.69534162854995,399.8736389309892 L485.17429496850673,357.492975605578 M455.802311286357,370.10519455167304 L529.3343699900703,327.6987165602135" stroke="black"  stroke-width="4"  fill="red"/>
<path d="M345.5655340079163,433.8213020122942 L345.442844216844,348.89015631331904 M271.86986617050195,476.322292353733 L271.6649275129913,391.3438707156408 M345.5655340079163,433.8213020122942 L271.86986617050195,476.322292353733 M345.442844216844,348.89015631331904 L271.6649275129913,391.3438707156408 M345.3198810223376,518.9179924229522 L345.1966435094943,433.892295021816 M271.86986617050195,476.322292353733 L345.3198810223376,518.9179924229522 M271.6649275129913,391.3438707156408 L345.1966435094943,433.892295021816 M419.015822263186,476.322292353733 L418.9748345316838,391.3438707156408 M345.3198810223376,518.9179924229522 L419.015822263186,476.322292353733 M345.1966435094943,433.892295021816 L418.9748345316838,391.3438707156408 M419.015822263186,476.322292353733 L345.5655340079163,433.8213020122942 M418.9748345316838,391.3438707156408 L345.442844216844,348.89015631331904" stroke="black"  stroke-width="4"  fill="red"/>
<path d="M432.5007320408644,325.4415625825149 L432.4748718592951,240.63144905136414 M380.4607566285208,295.45431699670905 L380.37720820344924,210.67781226574357 M432.5007320408644,325.4415625825149 L380.4607566285208,295.45431699670905 M432.4748718592951,240.63144905136414 L380.37720820344924,210.67781226574357 M387.36848876601266,291.4829041751073 L387.29260845429667,206.71085441001304 M380.4607566285208,295.45431699670905 L387.36848876601266,291.4829041751073 M380.37720820344924,210.67781226574357 L387.29260845429667,206.71085441001304 M411.412494571035,305.3350021238119 L411.36325662454635,220.54741763540406 M387.36848876601266,291.4829041751073 L411.412494571035,305.3350021238119 M387.29260845429667,206.71085441001304 L411.36325662454635,220.54741763540406 M437.67019877799544,290.22786321482147 L437.6500943199905,205.45722149348242 M411.412494571035,305.3350021238119 L437.67019877799544,290.22786321482147 M411.36325662454635,220.54741763540406 L437.6500943199905,205.45722149348242 M413.6261804664087,276.38675808706824 L413.5794336015285,191.63165093119085 M437.67019877799544,290.22786321482147 L413.6261804664087,276.38675808706824 M437.6500943199905,205.45722149348242 L413.5794336015285,191.63165093119085 M420.4912395059711,272.4398790031508 L420.4521057503421,187.6892036712139 M413.6261804664087,276.38675808706824 L420.4912395059711,272.4398790031508 M413.5794336015285,191.63165093119085 L420.4521057503421,187.6892036712139 M472.531242859627,302.3908447060042 L472.54979744056226,217.6065610692283 M420.4912395059711,272.4398790031508 L472.531242859627,302.3908447060042 M420.4521057503421,187.6892036712139 L472.54979744056226,217.6065610692283 M465.66618173965475,306.34394407558085 L465.6771232044129,221.55522852474618 M472.531242859627,302.3908447060042 L465.66618173965475,306.34394407558085 M472.54979744056226,217.6065610692283 L465.6771232044129,221.55522852474618 M443.28179673493304,293.4582183181209 L443.2679131040827,208.6839526129178 M465.66618173965475,306.34394407558085 L443.28179673493304,293.4582183181209 M465.6771232044129,221.55522852474618 L443.2679131040827,208.6839526129178 M417.02409060903153,308.56792340145745 L416.9810734833057,223.7767148942523 M443.28179673493304,293.4582183181209 L417.02409060903153,308.56792340145745 M443.2679131040827,208.6839526129178 L416.9810734833057,223.7767148942523 M439.40847172471126,321.4638876700554 L439.39027968163725,236.6582291850584 M417.02409060903153,308.56792340145745 L439.40847172471126,321.4638876700554 M416.9810734833057,223.7767148942523 L439.39027968163725,236.6582291850584 M439.40847172471126,321.4638876700554 L432.5007320408644,325.4415625825149 M439.39027968163725,236.6582291850584 L432.4748718592951,240.63144905136414" stroke="black"  stroke-width="4"  fill="red"/>
<path d="M221.8313274341671,441.5924598996214 L221.5708726201331,356.65266210278634 M272.0743491556225,433.8213020122942 L271.86986617050195,348.89015631331904 M221.8313274341671,441.5924598996214 L272.0743491556225,433.8213020122942 M221.5708726201331,356.65266210278634 L271.86986617050195,348.89015631331904 M285.6533658928737,404.8468599262936 L285.4641397364686,319.9480042134776 M272.0743491556225,433.8213020122942 L285.6533658928737,404.8468599262936 M271.86986617050195,348.89015631331904 L285.4641397364686,319.9480042134776 M249.05049290577878,383.663954929387 L248.82068772387862,298.78873701183875 M285.6533658928737,404.8468599262936 L249.05049290577878,383.663954929387 M285.4641397364686,319.9480042134776 L248.82068772387862,298.78873701183875 M198.86880466644135,391.4147058748341 L198.58316430332866,306.5308359396851 M249.05049290577878,383.663954929387 L198.86880466644135,391.4147058748341 M248.82068772387862,298.78873701183875 L198.58316430332866,306.5308359396851 M185.22869005026848,420.368749121879 L184.92765699784425,335.45258927183676 M198.86880466644135,391.4147058748341 L185.22869005026848,420.368749121879 M198.58316430332866,306.5308359396851 L184.92765699784425,335.45258927183676 M185.22869005026848,420.368749121879 L221.8313274341671,441.5924598996214 M184.92765699784425,335.45258927183676 L221.5708726201331,356.65266210278634" stroke="black"  stroke-width="4"  fill="red"/>
<path d="M382.51481597079345,327.981114036178 L382.4334757984122,243.1681566571487 M309.0646403104674,370.2467074144317 L308.9015984538275,285.3864751865127 M382.51481597079345,327.981114036178 L390.2096784060205,333.6471577033197 M390.2096784060205,333.6471577033197 L395.327275413775,340.2130064665987 M395.327275413775,340.2130064665987 L397.56908603244824,347.29778873420173 M397.56908603244824,347.29778873420173 L396.8032631540651,354.49010546071486 M396.8032631540651,354.49010546071486 L393.07266498558016,361.3718511459379 M393.07266498558016,361.3718511459379 L386.5927361718437,367.5425439311285 M386.5927361718437,367.5425439311285 L377.7392846440087,372.64271153100447 M377.7392846440087,372.64271153100447 L367.02684276965755,376.3749900158369 M367.02684276965755,376.3749900158369 L355.07876247113455,378.5216271519759 M355.07876247113455,378.5216271519759 L342.5907881805357,378.9573188699895 M342.5907881805357,378.9573188699895 L330.2903303357051,377.6566265024971 M330.2903303357051,377.6566265024971 L318.89380151117564,374.69548567221057 M318.89380151117564,374.69548567221057 L309.0646403104674,370.2467074144317 M382.4334757984122,243.1681566571487 L390.1368677477342,248.8278567123558 M390.1368677477342,248.8278567123558 L395.26013392398085,255.38635679438732 M395.26013392398085,255.38635679438732 L397.50442144115,262.4632123913835 M397.50442144115,262.4632123913835 L396.73773578013396,269.6474851238717 M396.73773578013396,269.6474851238717 L393.00298162210566,276.52153698199777 M393.00298162210566,276.52153698199777 L386.5158421046014,282.6853332456822 M386.5158421046014,282.6853332456822 L377.6525424904217,287.77980244341006 M377.6525424904217,287.77980244341006 L366.9281874864971,291.5079118242455 M366.9281874864971,291.5079118242455 L354.9668230981494,293.6521514484421 M354.9668230981494,293.6521514484421 L342.4649688262736,294.08735658874406 M342.4649688262736,294.08735658874406 L330.15084544314465,292.78811685888587 M330.15084544314465,292.78811685888587 L318.7416631735273,289.8302834536191 M318.7416631735273,289.8302834536191 L308.9015984538275,285.3864751865127 M309.0646403104674,370.2467074144317 L301.3744608601036,364.5697657590456 M301.3744608601036,364.5697657590456 L296.2698034130558,357.99552274563445 M296.2698034130558,357.99552274563445 L294.04621225823604,350.9067658488195 M294.04621225823604,350.9067658488195 L294.83134829864645,343.71579751209816 M294.83134829864645,343.71579751209816 L298.5779482468541,336.84042550423146 M298.5779482468541,336.84042550423146 L305.0668946823775,330.6796675282074 M305.0668946823775,330.6796675282074 L313.92031382669876,325.590719920603 M313.92031382669876,325.590719920603 L324.62368072722865,321.86837624228025 M324.62368072722865,321.86837624228025 L336.55572244343284,319.7281127936773 M336.55572244343284,319.7281127936773 L349.02437575252554,319.2937775232623 M349.02437575252554,319.2937775232623 L361.3066370956139,320.59048719474436 M361.3066370956139,320.59048719474436 L372.6902748483429,323.54322571016 M372.6902748483429,323.54322571016 L382.51481597079345,327.981114036178 M308.9015984538275,285.3864751865127 L301.2028999387883,279.7158772485143 M301.2028999387883,279.7158772485143 L296.0926020970371,273.1489829896661 M296.0926020970371,273.1489829896661 L293.8665745364176,266.06815279581974 M293.8665745364176,266.06815279581974 L294.6526162810155,258.88522844509873 M294.6526162810155,258.88522844509873 L298.40340775779475,252.01755020526502 M298.40340775779475,252.01755020526502 L304.8995849043338,245.86368865868747 M304.8995849043338,245.86368865868747 L313.7628520270013,240.78043934926924 M313.7628520270013,240.78043934926924 L324.4781118585845,237.06226468289594 M324.4781118585845,237.06226468289594 L336.42340200283707,234.92439868718515 M336.42340200283707,234.92439868718515 L348.9058923455601,234.49054997744386 M348.9058923455601,234.49054997744386 L361.20177881082384,235.78580705266063 M361.20177881082384,235.78580705266063 L372.5980413965729,238.73523822537425 M372.5980413965729,238.73523822537425 L382.4334757984122,243.1681566571487" stroke="black"  stroke-width="4"  fill="red"/>
<path d="M492.6092827644406,433.8567392244525 L566.100399341927,391.3793473901979 M492.6092827644406,433.8567392244525 L492.6297880410301,391.3438707156408 M566.16177835587,348.89015631331904 L492.6297880410301,391.3438707156408 M566.100399341927,391.3793473901979 L566.16177835587,348.89015631331904 M566.3463259596651,476.42884096246246 L492.6092827644406,433.8567392244525 M566.100399341927,391.3793473901979 L639.8371686767753,433.8567392244525 M639.8371686767753,433.8567392244525 L566.3463259596651,476.42884096246246 M584.5908571874056,423.2285245684562 L579.6459681816775,420.9946140653497 M579.6459681816775,420.9946140653497 L573.9217761717762,419.5081433474183 M573.9217761717762,419.5081433474183 L567.750670941758,418.8553161314764 M567.750670941758,418.8553161314764 L561.490894670497,419.0739842644313 M561.490894670497,419.0739842644313 L555.505837334229,420.1514736798468 M555.505837334229,420.1514736798468 L550.1429771267414,422.0252983559845 M550.1429771267414,422.0252983559845 L545.7137938250753,424.5867751753852 M545.7137938250753,424.5867751753852 L542.4756964164123,427.68728220752666 M542.4756964164123,427.68728220752666 L540.6170621796016,431.14684134637616 M540.6170621796016,431.14684134637616 L540.2462597827104,434.7645374001705 M540.2462597827104,434.7645374001705 L541.3852465255081,438.33014642914037 M541.3852465255081,438.33014642914037 L543.968224584348,441.636367107082 M543.968224584348,441.636367107082 L547.8453644395709,444.49087324255186 M547.8453644395709,444.49087324255186 L552.7914351238439,446.72753461276494 M552.7914351238439,446.72753461276494 L558.5188855527184,448.21612600374857 M558.5188855527184,448.21612600374857 L564.694579474824,448.8699578819625 M564.694579474824,448.8699578819625 L570.9592164687522,448.65094418944756 M570.9592164687522,448.65094418944756 L576.9483054758027,447.57184533655067 M576.9483054758027,447.57184533655067 L582.3134376663531,445.6955119945623 M582.3134376663531,445.6955119945623 L586.7426127752749,443.13120198295667 M586.7426127752749,443.13120198295667 L589.9784236924831,440.0281862835124 M589.9784236924831,440.0281862835124 L591.8330169511746,436.5670177090741 M591.8330169511746,436.5670177090741 L592.1989566511509,432.9489842076402 M592.1989566511509,432.9489842076402 L591.0553870269248,429.38437984194815 M591.0553870269248,429.38437984194815 L588.4691628131777,426.0802798380451 M588.4691628131777,426.0802798380451 L584.5908571874056,423.2285245684562 M566.3463259596651,476.42884096246246 L566.4079790632196,433.892295021816 M492.6297880410301,391.3438707156408 L566.4079790632196,433.892295021816 M639.9396950597227,391.34387071564083 L566.16177835587,348.89015631331904 M639.8371686767753,433.8567392244525 L639.9396950597227,391.34387071564083 M566.4079790632196,433.892295021816 L639.9396950597227,391.34387071564083 M584.5908571874056,423.2285245684562 L584.6625857008564,380.7215754245001 M584.6625857008564,380.7215754245001 L588.5430568633844,383.5717420908214 M588.5430568633844,383.5717420908214 L591.13072810019,386.87400180415244 M591.13072810019,386.87400180415244 L592.2749418329038,390.43662114268056 M592.2749418329038,390.43662114268056 L591.9088054556998,394.0526402426858 M591.9088054556998,394.0526402426858 L590.05318570293,397.51188211015943 M590.05318570293,397.51188211015943 L586.8155777449056,400.6131707703392 M586.8155777449056,400.6131707703392 L582.383939264774,403.17605378092856 M582.383939264774,403.17605378092856 L577.0158205335183,405.05134309234285 M577.0158205335183,405.05134309234285 L571.0233956015202,406.1298415588802 M571.0233956015202,406.1298415588802 L564.7552675544036,406.34873340124216 M564.7552675544036,406.34873340124216 L558.5761308005947,405.6952652921667 M558.5761308005947,405.6952652921667 L552.8454862835943,404.2075021477543 M552.8454862835943,404.2075021477543 L547.8966561939054,401.972085368883 M547.8966561939054,401.972085368883 L544.0173520967611,399.1191678366813 M544.0173520967611,399.1191678366813 L541.4329306293366,395.81478744931246 M541.4329306293366,395.81478744931246 L540.2933048841277,392.2511634475067 M540.2933048841277,392.2511634475067 L540.6643093822665,388.635481797399 M540.6643093822665,388.635481797399 L542.5239746194882,385.1778493655137 M542.5239746194882,385.1778493655137 L545.763871621346,382.0790693726361 M545.763871621346,382.0790693726361 L550.1955183079222,379.5190195542512 M550.1955183079222,379.5190195542512 L555.5613625279984,377.6462389086873 M555.5613625279984,377.6462389086873 L561.5497512984452,376.56934987963126 M561.5497512984452,376.56934987963126 L567.8130132021759,376.3508035945713 M567.8130132021759,376.3508035945713 L573.9875561481037,377.0032670413747 M573.9875561481037,377.0032670413747 L579.7149386111489,378.488909512735 M579.7149386111489,378.488909512735 L584.6625857008564,380.7215754245001" stroke="black"  stroke-width="4"  fill="red"/>
<path d="M481.58585424186305,525.3155357191342 L481.6146192811396,440.28274699059926 M444.7460609477321,546.6561356274185 L444.7337193165007,461.599709242517 M481.58585424186305,525.3155357191342 L485.46034957007936,528.1777838232492 M485.46034957007936,528.1777838232492 L488.04024459119057,531.4940427472343 M488.04024459119057,531.4940427472343 L489.1753329150671,535.071766338973 M489.1753329150671,535.071766338973 L488.7992577299253,538.7031138338912 M488.7992577299253,538.7031138338912 L486.9334505025861,542.1770245694127 M486.9334505025861,542.1770245694127 L483.6860175121098,545.2914584210962 M483.6860175121098,545.2914584210962 L479.24546751500117,547.8652097645668 M479.24546751500117,547.8652097645668 L473.8698884109136,549.7484467334259 M473.8698884109136,549.7484467334259 L467.87186823183646,550.8315210847002 M467.87186823183646,550.8315210847002 L461.60035491429454,551.0513394517752 M461.60035491429454,551.0513394517752 L455.42022747721006,550.3951018062439 M455.42022747721006,550.3951018062439 L449.69105060048923,548.9010309248349 M449.69105060048923,548.9010309248349 L444.7460609477321,546.6561356274185 M481.6146192811396,440.28274699059926 L485.4934396112567,443.1418232205881 M485.4934396112567,443.1418232205881 L488.0762161900035,446.4544077431449 M488.0762161900035,446.4544077431449 L489.21257454728436,450.0281679497261 M489.21257454728436,450.0281679497261 L488.83608318837605,453.65549341731673 M488.83608318837605,453.65549341731673 L486.9681968266622,457.12555721875464 M486.9681968266622,457.12555721875464 L483.7171418204031,460.2365428106954 M483.7171418204031,460.2365428106954 L479.27163695979766,462.80744495711775 M479.27163695979766,462.80744495711775 L473.89005812405264,464.6885973872733 M473.89005812405264,464.6885973872733 L467.88534244539125,465.77047298645294 M467.88534244539125,465.77047298645294 L461.60682777218256,465.9900480658009 M461.60682777218256,465.9900480658009 L455.4198009313028,465.334536730815 M455.4198009313028,465.334536730815 L449.6842284547192,463.8421195503529 M449.6842284547192,463.8421195503529 L444.7337193165007,461.599709242517 M444.7460609477321,546.6561356274185 L440.8727411668211,543.7911237644016 M440.8727411668211,543.7911237644016 L438.2961045517013,540.472734226008 M438.2961045517013,540.472734226008 L437.165611027625,536.8940012614594 M437.165611027625,536.8940012614594 L437.5465577643244,533.2629927995144 M437.5465577643244,533.2629927995144 L439.4164097328659,529.7906990449094 M439.4164097328659,529.7906990449094 L442.6661270198591,526.678785616758 M442.6661270198591,526.678785616758 L447.1066775651423,524.1078807480385 M447.1066775651423,524.1078807480385 L452.4799733432443,522.2271641995037 M452.4799733432443,522.2271641995037 L458.47394940323335,521.1457068343891 M458.47394940323335,521.1457068343891 L464.7405913005594,520.9262356401296 M464.7405913005594,520.9262356401296 L470.91612354878197,521.58146391587 M470.91612354878197,521.58146391587 L476.64204119952694,523.0734041840545 M476.64204119952694,523.0734041840545 L481.58585424186305,525.3155357191342 M444.7337193165007,461.599709242517 L440.8560771582555,458.7378692340779 M440.8560771582555,458.7378692340779 L438.27656626151617,455.423154082043 M438.27656626151617,455.423154082043 L437.14481296464544,451.8483844955129 M437.14481296464544,451.8483844955129 L437.5261867618884,448.2213980678305 M437.5261867618884,448.2213980678305 L439.3981268976227,444.75295125874567 M439.3981268976227,444.75295125874567 L442.6514713020941,441.64448610816413 M442.6514713020941,441.64448610816413 L447.0969767127118,439.0764304566262 M447.0969767127118,439.0764304566262 L452.4762671240293,437.19779846462274 M452.4762671240293,437.19779846462274 L458.4769296528692,436.1175398630403 M458.4769296528692,436.1175398630403 L464.75056201952435,435.89831195442645 M464.75056201952435,435.89831195442645 L470.9329834096274,436.5528139124815 M470.9329834096274,436.5528139124815 L476.66528938147115,438.04310046464855 M476.66528938147115,438.04310046464855 L481.6146192811396,440.28274699059926" stroke="black"  stroke-width="4"  fill="red"/>
<path d="M694.7150635994783,317.11183381450024 L697.9617207520366,319.38016132618947 M697.9617207520366,319.38016132618947 L700.3802417994032,321.9684104555646 M700.3802417994032,321.9684104555646 L701.8775832293927,324.7772127261297 M701.8775832293927,324.7772127261297 L702.3959960628551,327.6987165602135 M702.3959960628551,327.6987165602135 L749.6037369514158,412.6062243335261 M749.6037369514158,412.6062243335261 L712.7358179062726,391.4147058748342 M694.7150635994783,317.11183381450024 L712.7358179062726,391.4147058748342 M702.3959960628551,327.6987165602135 L701.7657029423331,331.03154120841236 M701.7657029423331,331.03154120841236 L699.8630839029129,334.1977893836388 M699.8630839029129,334.1977893836388 L696.7832395626881,337.0385593607659 M696.7832395626881,337.0385593607659 L692.6804973315004,339.4112380660274 M692.6804973315004,339.4112380660274 L687.760574513055,341.1966613115939 M687.760574513055,341.1966613115939 L682.2703046233171,342.3051035944231 M682.2703046233171,342.3051035944231 L676.4852762857081,342.6808853636426 M676.4852762857081,342.6808853636426 L671.4097863019933,342.39289719540136 M671.4097863019933,342.39289719540136 L666.5262362747833,341.5400235049053 M666.5262362747833,341.5400235049053 L662.0224798602981,340.1551114035484 M662.0224798602981,340.1551114035484 L658.0717211670305,338.29148908770463 M658.0717211670305,338.29148908770463 L654.8258292238959,336.0209076533244 M654.8258292238959,336.0209076533244 L652.4095064391779,333.4307517801389 M652.4095064391779,333.4307517801389 L650.9154815492889,330.62066872761824 M650.9154815492889,330.62066872761824 L650.4009787321386,327.6987165602135 M650.4009787321386,327.6987165602135 L651.0357042857199,324.3664711440072 M651.0357042857199,324.3664711440072 L652.9418973004331,321.20186130021074 M652.9418973004331,321.20186130021074 L656.0237225254384,318.3634489008126 M656.0237225254384,318.3634489008126 L660.1264799410753,315.99339139340395 M660.1264799410753,315.99339139340395 L665.0444492360336,314.21033381417357 M665.0444492360336,314.21033381417357 L670.531164084576,313.1035217767048 M670.531164084576,313.1035217767048 L676.311766746089,312.7283273212451 M676.311766746089,312.7283273212451 L681.3833415187223,313.0158671581183 M681.3833415187223,313.0158671581183 L686.2635602137236,313.86746814266183 M686.2635602137236,313.86746814266183 L690.7650962281934,315.2504654242956 M690.7650962281934,315.2504654242956 L694.7150635994783,317.11183381450024 M705.7001216418942,438.06714811211435 L749.6037369514158,412.6062243335261 M699.2116748490585,404.5735574041251 L705.7001216418942,438.06714811211435 M684.1504935834632,395.8376036408822 L687.009158488459,395.00716867647736 M687.009158488459,395.00716867647736 L689.8682996955113,394.9009341825681 M689.8682996955113,394.9009341825681 L692.6788821715015,395.59695766496867 M692.6788821715015,395.59695766496867 L695.0948415293819,397.0613676019432 M695.0948415293819,397.0613676019432 L696.6801754637179,398.7125531052608 M696.6801754637179,398.7125531052608 L697.9713372526016,400.80507729065715 M697.9713372526016,400.80507729065715 L698.6913884517814,402.5787554687091 M698.6913884517814,402.5787554687091 L699.2116748490585,404.5735574041251 M676.4418803443225,398.881486958874 L684.1504935834632,395.8376036408822 M676.4852762857081,342.6808853636426 L676.4418803443225,398.881486958874 M632.004854443989,395.65112671286676 L705.7001216418942,438.06714811211435 M675.9088177501915,370.2467074144317 L632.004854443989,395.65112671286676 M712.7358179062726,391.4147058748342 L675.9088177501915,370.2467074144317 M676.311766746089,312.7283273212451 L675.9088177501915,370.2467074144317 M648.79713073129,386.07631696239855 L661.9830144491573,392.88593801969444 M661.9830144491573,392.88593801969444 L676.4418803443225,398.881486958874 M658.0717211670305,338.29148908770463 L648.79713073129,386.07631696239855 M626.5387446287884,370.17606897598966 L636.9600657453673,378.4912447151138 M636.9600657453673,378.4912447151138 L648.79713073129,386.07631696239855 M650.4009787321386,327.6987165602135 L626.5387446287884,370.17606897598966 M631.7886920940387,365.72380816817935 L626.5387446287884,370.17606897598966 M638.6457836878867,369.7414402909255 L639.03202196792,367.18119376093074 M639.03202196792,367.18119376093074 L638.7860172290427,365.33345872764863 M638.7860172290427,365.33345872764863 L638.0894300579339,364.19144083856025 M638.0894300579339,364.19144083856025 L637.1025728569155,363.6477375702712 M637.1025728569155,363.6477375702712 L636.1198078371315,363.576307625962 M636.1198078371315,363.576307625962 L634.8321796952284,363.8827613618455 M634.8321796952284,363.8827613618455 L633.3642895134005,364.61011137135034 M633.3642895134005,364.61011137135034 L631.7886920940387,365.72380816817935 M638.6457836878867,369.7414402909255 L632.004854443989,395.65112671286676 M638.6457836878867,369.7414402909255 L699.2116748490585,404.5735574041251 M631.7886920940387,365.72380816817935 L684.1504935834632,395.8376036408822" stroke="black"  stroke-width="4"  fill="red"/>
<path d="M367.34737715437,548.7915044195347 L367.248633088583,463.73271427874226 M293.4539012571047,591.548939141783 L293.2724658413366,506.44287435255677 M367.34737715437,548.7915044195347 L293.4539012571047,591.548939141783 M367.248633088583,463.73271427874226 L293.2724658413366,506.44287435255677 M282.6110649877875,622.5166936173432 L282.4173554728386,537.3764558774783 M293.4539012571047,591.548939141783 L282.6110649877875,622.5166936173432 M293.2724658413366,506.44287435255677 L282.4173554728386,537.3764558774783 M289.5693168824049,636.5471071572711 L289.38332192363123,551.3914052211769 M282.6110649877875,622.5166936173432 L281.9731475375472,625.5379279361298 M281.9731475375472,625.5379279361298 L282.387124658806,628.5711271033795 M282.387124658806,628.5711271033795 L283.8364981880125,631.4941021455663 M283.8364981880125,631.4941021455663 L286.26309829325766,634.1889972541001 M286.26309829325766,634.1889972541001 L289.5693168824049,636.5471071572711 M282.4173554728386,537.3764558774783 L281.7787092063942,540.3943592505 M281.7787092063942,540.3943592505 L282.19313403824594,543.4242148152421 M282.19313403824594,543.4242148152421 L283.64411424054464,546.343968265717 M283.64411424054464,546.343968265717 L286.07341573399515,549.0358936043099 M286.07341573399515,549.0358936043099 L289.38332192363123,551.3914052211769 M313.7226823363911,640.6252290026412 L313.56369521601766,555.4650343471167 M289.5693168824049,636.5471071572711 L293.6219701056916,638.4732984381624 M293.6219701056916,638.4732984381624 L298.257753400136,639.8898098933837 M298.257753400136,639.8898098933837 L303.2897339927407,640.7394640812308 M303.2897339927407,640.7394640812308 L308.5149370157336,640.9879580106856 M308.5149370157336,640.9879580106856 L313.7226823363911,640.6252290026412 M289.38332192363123,551.3914052211769 L293.4405004692173,553.3154743660828 M293.4405004692173,553.3154743660828 L298.08146440316875,554.7304253509412 M298.08146440316875,554.7304253509412 L303.1190718936822,555.5791435909921 M303.1190718936822,555.5791435909921 L308.3501208689376,555.8273637966201 M308.3501208689376,555.8273637966201 L313.56369521601766,555.4650343471167 M367.14966831634587,634.401942560326 L367.05048209686726,549.248604263189 M313.7226823363911,640.6252290026412 L367.14966831634587,634.401942560326 M313.56369521601766,555.4650343471167 L367.05048209686726,549.248604263189 M441.0433649200613,591.5489391417832 L441.0268707913551,506.4428743525569 M367.14966831634587,634.401942560326 L441.0433649200613,591.5489391417832 M367.05048209686726,549.248604263189 L441.0268707913551,506.4428743525569 M441.0433649200613,591.5489391417832 L367.34737715437,548.7915044195347 M441.0268707913551,506.4428743525569 L367.248633088583,463.73271427874226" stroke="black"  stroke-width="4"  fill="red"/>
<path d="M105.29736752659261,392.45334541858455 L105.14160061541872,358.521967894794 M180.5928159714599,380.82776909280665 L180.47054818879099,346.901572416648 M105.29736752659261,392.45334541858455 L180.5928159714599,380.82776909280665 M105.14160061541872,358.521967894794 L180.47054818879099,346.901572416648 M50.57619850614492,360.70842752513033 L50.3962630485841,326.7912043145268 M50.57619850614492,360.70842752513033 L105.29736752659261,392.45334541858455 M50.3962630485841,326.7912043145268 L105.14160061541872,358.521967894794 M201.0293304653808,337.5030144431804 L200.9162706992423,303.59615283027114 M180.5928159714599,380.82776909280665 L201.0293304653808,337.5030144431804 M180.47054818879099,346.901572416648 L200.9162706992423,303.59615283027114 M201.0293304653808,337.5030144431804 L146.30737022801264,305.84945207752867 M146.30737022801264,305.84945207752867 L71.14957194930963,317.42935464748115 M71.14957194930963,317.42935464748115 L50.57619850614492,360.70842752513033 M96.33491388792453,366.0159266767572 L104.17732152346224,369.57407793284233 M104.17732152346224,369.57407793284233 L113.27984264562758,371.94231582956155 M113.27984264562758,371.94231582956155 L123.11274602219106,372.9825507709805 M123.11274602219106,372.9825507709805 L133.1035902426845,372.63410178191964 M133.1035902426845,372.63410178191964 L142.6706881002617,370.91730258957796 M142.6706881002617,370.91730258957796 L151.25714230279902,367.9322735996092 M151.25714230279902,367.9322735996092 L158.3634461384754,363.853042496151 M158.3634461384754,363.853042496151 L163.57661974527662,358.917283929902 M163.57661974527662,358.917283929902 L166.59415571761923,353.41239801504224 M166.59415571761923,353.41239801504224 L167.24158615463875,347.6586520543296 M167.24158615463875,347.6586520543296 L165.4823189601551,341.9905080866232 M165.4823189601551,341.9905080866232 L161.4196006504738,336.7371602245992 M161.4196006504738,336.7371602245992 L155.29026430108485,332.20345571860463 M155.29026430108485,332.20345571860463 L147.45077069702324,328.6522806230676 M147.45077069702324,328.6522806230676 L138.35647138719565,326.2894135997847 M138.35647138719565,326.2894135997847 L128.53518069465133,325.25171695565433 M128.53518069465133,325.25171695565433 L118.55672527039121,325.5993084357592 M118.55672527039121,325.5993084357592 L108.99990878099862,327.31201639105353 M108.99990878099862,327.31201639105353 L100.41929223382994,330.2906911284005 M100.41929223382994,330.2906911284005 L93.31305058320453,334.3627414458442 M93.31305058320453,334.3627414458442 L88.09414944696118,339.2921377056907 M88.09414944696118,339.2921377056907 L85.06640276109334,344.79295655509 M85.06640276109334,344.79295655509 L84.40659852439978,350.5458289058645 M84.40659852439978,350.5458289058645 L86.15420893431423,356.21652728019495 M86.15420893431423,356.21652728019495 L90.20861233502643,361.47525407567775 M90.20861233502643,361.47525407567775 L96.33491388792453,366.0159266767572 M71.14957194930963,317.42935464748115 L70.97896586655219,283.5314663698767 M70.97896586655219,283.5314663698767 L50.3962630485841,326.7912043145268 M146.30737022801264,305.84945207752867 L146.170140861326,271.95674452095375 M200.9162706992423,303.59615283027114 L146.170140861326,271.95674452095375 M146.170140861326,271.95674452095375 L70.97896586655219,283.5314663698767 M96.33491388792453,366.0159266767572 L97.13098829252743,535.1631745692712 M97.13098829252743,535.1631745692712 L104.95610070317719,538.7291988767004 M104.95610070317719,538.7291988767004 L114.038508579513,541.1026761096707 M114.038508579513,541.1026761096707 L123.84965274871507,542.1452121931077 M123.84965274871507,542.1452121931077 L133.81836075098016,541.7959924012428 M133.81836075098016,541.7959924012428 L143.36423653655282,540.0753952768989 M143.36423653655282,540.0753952768989 L151.9316200910053,537.083761938482 M151.9316200910053,537.083761938482 L159.02211522471822,532.9955038968817 M159.02211522471822,532.9955038968817 L164.2236608111689,528.0488203904997 M164.2236608111689,528.0488203904997 L167.23442311959064,522.5317464673435 M167.23442311959064,522.5317464673435 L167.8803239897224,516.7652577417861 M167.8803239897224,516.7652577417861 L166.12485559558655,511.0845568215847 M166.12485559558655,511.0845568215847 L162.07103925305623,505.81956758716296 M162.07103925305623,505.81956758716296 L155.9551875160097,501.27581384853687 M155.9551875160097,501.27581384853687 L148.1329763676638,497.71676568505427 M148.1329763676638,497.71676568505427 L139.05875406214363,495.34865929690807 M139.05875406214363,495.34865929690807 L129.2591712395601,494.3086614835779 M129.2591712395601,494.3086614835779 L119.30279726056642,494.6570237875126 M119.30279726056642,494.6570237875126 L109.76715728229067,496.3735296629666 M109.76715728229067,496.3735296629666 L101.20558543038669,499.35880878097294 M101.20558543038669,499.35880878097294 L94.11515206968232,503.439886062849 M94.11515206968232,503.439886062849 L88.90790417690437,508.3802072771748 M88.90790417690437,508.3802072771748 L85.88697624767258,513.893214176582 M85.88697624767258,513.893214176582 L85.22875625144911,519.6588292775136 M85.22875625144911,519.6588292775136 L86.97261949062556,525.3420846128756 M86.97261949062556,525.3420846128756 L91.01815778258259,530.6124527700113 M91.01815778258259,530.6124527700113 L97.13098829252743,535.1631745692712" stroke="black"  stroke-width="4"  fill="red"/>
<path d="M309.38963719066993,285.80913416911295 L309.22731715286125,201.04345059659155 M235.93982884590952,327.9811120230318 L235.69580833266997,243.1681546462568 M309.38963719066993,285.80913416911295 L235.93982884590952,327.9811120230318 M309.22731715286125,201.04345059659155 L235.69580833266997,243.1681546462568 M162.97697359815905,285.8091301517332 L162.6523335342203,201.04344658372008 M235.93982884590952,327.9811120230318 L162.97697359815905,285.8091301517332 M235.69580833266997,243.1681546462568 L162.6523335342203,201.04344658372008 M236.4262432702919,243.73045313377438 L236.18330188820147,159.01204198931433 M162.97697359815905,285.8091301517332 L236.4262432702919,243.73045313377438 M162.6523335342203,201.04344658372008 L236.18330188820147,159.01204198931433 M236.4262432702919,243.73045313377438 L309.38963719066993,285.80913416911295 M236.18330188820147,159.01204198931433 L309.22731715286125,201.04345059659155" stroke="black"  stroke-width="4"  fill="red"/>
<path d="M742.9766371243845,463.6216625879675 L522.2955090479379,591.7589305925221 M742.8647219545335,493.34918949753626 L742.9766371243845,463.6216625879675 M742.8647219545335,493.34918949753626 L522.2695090264692,621.5359877634328 M522.2695090264692,621.5359877634328 L522.2955090479379,591.7589305925221 M522.2955090479379,591.7589305925221 L522.2967846503208,589.3419242672269 M522.2967846503208,589.3419242672269 L522.2932342548385,586.6912510928851 M522.2932342548385,586.6912510928851 L522.2771708555143,583.9852869215006 M522.2771708555143,583.9852869215006 L522.2408748051755,581.3314409339105 M522.2408748051755,581.3314409339105 L522.1779357315229,578.7589193519746 M522.1779357315229,578.7589193519746 L522.0452053520353,575.5146297089766 M522.0452053520353,575.5146297089766 L521.8233017131208,572.1749250277596 M521.8233017131208,572.1749250277596 L521.5301764315304,569.272814923868 M521.5301764315304,569.272814923868 L521.1661253168561,566.7888127101637 M731.9314707459989,444.4908732425519 L521.1661253168561,566.7888127101637 M742.9766371243845,463.6216625879675 L742.7091839227605,460.6253664012827 M742.7091839227605,460.6253664012827 L741.8988320457461,457.4589681459835 M741.8988320457461,457.4589681459835 L740.5862117423712,454.2813371769709 M740.5862117423712,454.2813371769709 L738.8371825886286,451.2519298187695 M738.8371825886286,451.2519298187695 L736.7395060872984,448.52275753165173 M736.7395060872984,448.52275753165173 L734.3984484217983,446.2307523045104 M734.3984484217983,446.2307523045104 L731.9314707459989,444.4908732425519 M705.9225991049304,472.0679365989896 L742.8647219545335,493.34918949753626 M706.0618487919467,429.604743315423 L731.9314707459989,444.4908732425519 M705.9225991049304,472.0679365989896 L706.0618487919467,429.604743315423 M256.93393681112207,518.9179924229522 L551.1288969846707,349.10218981754605 M433.6465787063196,621.5359877634326 L256.93393681112207,518.9179924229522 M433.6465787063196,621.5359877634326 L444.61926413246397,616.4576298665836 M444.61926413246397,616.4576298665836 L457.26048688965744,612.9244133497089 M457.26048688965744,612.9244133497089 L470.93757785558205,611.1126288663445 M470.93757785558205,611.1126288663445 L484.96647401907654,611.1126288663445 M484.96647401907654,611.1126288663445 L498.6456570535196,612.9244133497089 M498.6456570535196,612.9244133497089 L511.29095961772725,616.4576298665836 M511.29095961772725,616.4576298665836 L522.2695090264692,621.5359877634328 M735.2241343604676,455.05997822018224 L705.9225991049304,472.0679365989896 M551.1288969846707,349.10218981754605 L735.2241343604676,455.05997822018224 M433.6379120324967,591.7589305925219 L444.6148902310042,586.6825285585485 M444.6148902310042,586.6825285585485 L457.26105715720456,583.1506731236623 M457.26105715720456,583.1506731236623 L470.9434967199294,581.339586682961 M470.9434967199294,581.339586682961 L484.97787908566255,581.339586682961 M484.97787908566255,581.339586682961 L498.66241235353147,583.1506731236623 M498.66241235353147,583.1506731236623 L511.31266227860266,586.6825285585485 M511.31266227860266,586.6825285585485 L522.2955090479379,591.7589305925221 M433.6379120324967,591.7589305925219 L433.6465787063196,621.5359877634326 M433.6379120324967,591.7589305925219 L433.63770291033234,589.3419242672269 M433.63770291033234,589.3419242672269 L433.6418269646542,586.6912510928851 M433.6418269646542,586.6912510928851 L433.65800432803167,583.9852869215006 M433.65800432803167,583.9852869215006 L433.69403151231575,581.3314409339105 M433.69403151231575,581.3314409339105 L433.75638490718654,578.7589193519746 M433.75638490718654,578.7589193519746 L433.8879287405789,575.5146297089766 M433.8879287405789,575.5146297089766 L434.1080426318936,572.1749250277596 M434.1080426318936,572.1749250277596 L434.39902814063606,569.2728149238678 M434.39902814063606,569.2728149238678 L434.7606160213664,566.7888127101637 M434.7606160213664,566.7888127101637 L448.22234776188594,562.660205847588 M448.22234776188594,562.660205847588 L462.8049025633163,560.1194053781123 M462.8049025633163,560.1194053781123 L477.9590176581814,559.2617426739728 M477.9590176581814,559.2617426739728 L493.11412474996104,560.1194053781123 M493.11412474996104,560.1194053781123 L507.69961831299736,562.660205847588 M507.69961831299736,562.660205847588 L521.1661253168561,566.7888127101637 M724.3885202555,418.97889502046945 L706.0618487919467,429.604743315423 M551.213565873933,319.3842476076142 L724.3885202555,418.97889502046945 M278.93188780906394,476.4288409624624 L551.213565873933,319.3842476076142 M434.7606160213664,566.7888127101637 L278.93188780906394,476.4288409624624 M735.332961643699,425.34731087804414 L735.067854842051,422.67229061148095 M735.067854842051,422.67229061148095 L734.2650082668652,420.45074344424967 M734.2650082668652,420.45074344424967 L732.9646079682195,418.79409432720087 M732.9646079682195,418.79409432720087 L731.2317645232404,417.7855035940922 M731.2317645232404,417.7855035940922 L729.1533134081903,417.47564956630623 M729.1533134081903,417.47564956630623 L726.8334535226165,417.8801774742355 M726.8334535226165,417.8801774742355 L724.3885202555,418.97889502046945 M735.332961643699,425.34731087804414 L735.2241343604676,455.05997822018224 M256.93393681112207,518.9179924229522 L256.8563534292279,489.18055921552696 M256.8563534292279,489.18055921552696 L551.1659211260394,319.43079911349747 M551.1288969846707,349.10218981754605 L551.1659211260394,319.43079911349747 M433.6379120324967,591.7589305925219 L256.8563534292279,489.18055921552696 M551.1659211260394,319.43079911349747 L735.332961643699,425.34731087804414 M278.93188780906394,476.4288409624624 L273.28765031340794,476.85160731855655 M273.28765031340794,476.85160731855655 L268.01974895800254,478.0918587581117 M268.01974895800254,478.0918587581117 L263.47755671190606,480.0672958083637 M263.47755671190606,480.0672958083637 L260.2603163700448,482.36632746249654 M260.2603163700448,482.36632746249654 L258.22074745880315,484.75249983547684 M258.22074745880315,484.75249983547684 L257.19718120163225,486.93131785767207 M257.19718120163225,486.93131785767207 L256.8563534292279,489.18055921552696 M551.213565873933,319.3842476076142 L551.2049226597438,316.568434195829 M551.2049226597438,316.568434195829 L551.1958068633612,314.78346717287764 M551.1958068633612,314.78346717287764 L551.1868134435408,314.1473913000349 M551.1868134435408,314.1473913000349 L551.1793183139675,314.59343869841103 M551.1793183139675,314.59343869841103 L551.173413990254,315.80145134248045 M551.173413990254,315.80145134248045 L551.1692198833857,317.38533621216646 M551.1692198833857,317.38533621216646 L551.1659211260394,319.43079911349747" stroke="black"  stroke-width="4"  fill="red"/></svg>