<svg viewBox="0 0 800 800" xmlns="http://www.w3.org/2000/svg"><path d="M501.3167268168781,391.4807212068809 L501.4255518865055,316.02167113090303 M566.3945208392199,353.86624544786025 L566.5754935700941,278.449221551024 M501.3167268168781,391.4807212068809 L566.3945208392199,353.86624544786025 M501.4255518865055,316.02167113090303 L566.5754935700941,278.449221551024 M501.0998001683909,316.335125867807 L501.20814317835357,240.9601273778667 M566.3945208392199,353.86624544786025 L501.0998001683909,316.335125867807 M566.5754935700941,278.449221551024 L501.20814317835357,240.9601273778667 M436.02176551748715,353.86624544786025 L436.05796006366205,278.449221551024 M501.0998001683909,316.335125867807 L436.02176551748715,353.86624544786025 M501.20814317835357,240.9601273778667 L436.05796006366205,278.449221551024 M436.02176551748715,353.86624544786025 L501.3167268168781,391.4807212068809 M436.05796006366205,278.449221551024 L501.4255518865055,316.02167113090303" stroke="black"  stroke-width="4"  fill="red"/>
<path d="M403.42857668705403,372.66304645840296 L403.42857668705403,297.2250095494136 M338.1335550634195,410.319304482857 L338.0609243385879,334.83924112349536 M403.42857668705403,372.66304645840296 L338.1335550634195,410.319304482857 M403.42857668705403,297.2250095494136 L338.0609243385879,334.83924112349536 M403.42857668705403,448.0593361625378 L403.42857668705403,372.53724604184026 M338.1335550634195,410.319304482857 L403.42857668705403,448.0593361625378 M338.0609243385879,334.83924112349536 L403.42857668705403,372.53724604184026 M468.72359831068854,410.319304482857 L468.7962290355201,334.83924112349536 M403.42857668705403,448.0593361625378 L468.72359831068854,410.319304482857 M403.42857668705403,372.53724604184026 L468.7962290355201,334.83924112349536 M468.72359831068854,410.319304482857 L403.42857668705403,372.66304645840296 M468.7962290355201,334.83924112349536 L403.42857668705403,297.2250095494136" stroke="black"  stroke-width="4"  fill="red"/>
<path d="M305.4316014876025,429.1788311532478 L305.3225341807584,353.67775443271836 M239.918505843228,466.9608545329957 L239.7363219202822,391.41775101208646 M305.4316014876025,429.1788311532478 L239.918505843228,466.9608545329957 M305.3225341807584,353.67775443271836 L239.7363219202822,391.41775101208646 M305.21322382699094,504.8270718367095 L305.1036696129808,429.24194167194406 M239.918505843228,466.9608545329957 L305.21322382699094,504.8270718367095 M239.7363219202822,391.41775101208646 L305.1036696129808,429.24194167194406 M370.7265625182888,466.9608545329957 L370.69012573369963,391.41775101208646 M305.21322382699094,504.8270718367095 L370.7265625182888,466.9608545329957 M305.1036696129808,429.24194167194406 L370.69012573369963,391.41775101208646 M370.7265625182888,466.9608545329957 L305.4316014876025,429.1788311532478 M370.69012573369963,391.41775101208646 L305.3225341807584,353.67775443271836" stroke="black"  stroke-width="4"  fill="red"/>
<path d="M382.71421674471947,332.8327033070354 L382.69122786900607,257.4392203192097 M336.45234021160644,306.17499945789723 L336.37806832937423,230.81139362032536 M382.71421674471947,332.8327033070354 L336.45234021160644,306.17499945789723 M382.69122786900607,257.4392203192097 L336.37806832937423,230.81139362032536 M342.59309352166014,302.6445402645713 L342.5256383473623,227.2848947494143 M336.45234021160644,306.17499945789723 L342.59309352166014,302.6445402645713 M336.37806832937423,230.81139362032536 L342.5256383473623,227.2848947494143 M363.9674469701354,314.9586130509232 L363.92367600784826,239.58515766275565 M342.59309352166014,302.6445402645713 L363.9674469701354,314.9586130509232 M342.5256383473623,227.2848947494143 L363.92367600784826,239.58515766275565 M387.3097076157329,301.5288489236609 L387.2918353944911,226.17045511444417 M363.9674469701354,314.9586130509232 L387.3097076157329,301.5288489236609 M363.92367600784826,239.58515766275565 L387.2918353944911,226.17045511444417 M365.93534304932126,289.2245484041399 L365.893786579045,213.87996432760832 M387.3097076157329,301.5288489236609 L365.93534304932126,289.2245484041399 M387.2918353944911,226.17045511444417 L365.893786579045,213.87996432760832 M372.03816133784477,285.7158989202662 L372.00337267861045,210.3752545937121 M365.93534304932126,289.2245484041399 L372.03816133784477,285.7158989202662 M365.893786579045,213.87996432760832 L372.00337267861045,210.3752545937121 M418.30006270989225,312.34135111185697 L418.3165571399059,236.97083007539592 M372.03816133784477,285.7158989202662 L418.30006270989225,312.34135111185697 M372.00337267861045,210.3752545937121 L418.3165571399059,236.97083007539592 M412.19724257195077,315.85553023107127 L412.2069691847657,240.48106936452052 M418.30006270989225,312.34135111185697 L412.19724257195077,315.85553023107127 M418.3165571399059,236.97083007539592 L412.2069691847657,240.48106936452052 M392.29823902414205,304.4005314669908 L392.28589691961304,229.03891605183097 M412.19724257195077,315.85553023107127 L392.29823902414205,304.4005314669908 M412.2069691847657,240.48106936452052 L392.28589691961304,229.03891605183097 M368.9559766726673,317.83257684131036 L368.91773582141076,242.45589981614512 M392.29823902414205,304.4005314669908 L368.9559766726673,317.83257684131036 M392.28589691961304,229.03891605183097 L368.91773582141076,242.45589981614512 M388.8549767632419,329.2966773148822 L388.83880461781126,253.90715472083988 M368.9559766726673,317.83257684131036 L388.8549767632419,329.2966773148822 M368.91773582141076,242.45589981614512 L388.83880461781126,253.90715472083988 M388.8549767632419,329.2966773148822 L382.71421674471947,332.8327033070354 M388.83880461781126,253.90715472083988 L382.69122786900607,257.4392203192097" stroke="black"  stroke-width="4"  fill="red"/>
<path d="M195.43584261028886,436.0871423861848 L195.2043065967949,360.5783742269148 M240.10028468796824,429.1788311532478 L239.918505843228,353.67775443271836 M195.43584261028886,436.0871423861848 L240.10028468796824,429.1788311532478 M195.2043065967949,360.5783742269148 L239.918505843228,353.67775443271836 M252.17159699667445,403.42147727716474 L252.00338098551987,327.9491053233289 M240.10028468796824,429.1788311532478 L252.17159699667445,403.42147727716474 M239.918505843228,353.67775443271836 L252.00338098551987,327.9491053233289 M219.63281162121947,384.5905510936925 L219.42852215206625,309.1391923851076 M252.17159699667445,403.42147727716474 L219.63281162121947,384.5905510936925 M252.00338098551987,327.9491053233289 L219.42852215206625,309.1391923851076 M175.02289305079776,391.4807212068808 L174.76896788833392,316.02167113090303 M219.63281162121947,384.5905510936925 L175.02289305079776,391.4807212068808 M219.42852215206625,309.1391923851076 L174.76896788833392,316.02167113090303 M162.89726667855265,417.21994116645607 L162.6296579067712,341.732186387138 M175.02289305079776,391.4807212068808 L162.89726667855265,417.21994116645607 M174.76896788833392,316.02167113090303 L162.6296579067712,341.732186387138 M162.89726667855265,417.21994116645607 L195.43584261028886,436.0871423861848 M162.6296579067712,341.732186387138 L195.2043065967949,360.5783742269148" stroke="black"  stroke-width="4"  fill="red"/>
<path d="M338.2783333818754,335.09028346282804 L338.2060245657765,259.6942723850411 M272.98347244449894,372.66304645840296 L272.83853343978495,297.2250095494136 M338.2783333818754,335.09028346282804 L345.1188203939682,340.12721536918644 M345.1188203939682,340.12721536918644 L349.6682007317385,345.96404527571747 M349.6682007317385,345.96404527571747 L351.6610987919302,352.26219049832446 M351.6610987919302,352.26219049832446 L350.98030670536076,358.65593042138505 M350.98030670536076,358.65593042138505 L347.66392404957315,364.7735826051054 M347.66392404957315,364.7735826051054 L341.9034742348076,370.2591314642339 M341.9034742348076,370.2591314642339 L334.0330385125137,374.79301761491183 M334.0330385125137,374.79301761491183 L324.51001972873024,378.11089401828076 M324.51001972873024,378.11089401828076 L313.8885578391291,380.01918589133766 M313.8885578391291,380.01918589133766 L302.7871474290975,380.4065019172492 M302.7871474290975,380.4065019172492 L291.85243315205463,379.25022793295705 M291.85243315205463,379.25022793295705 L281.7212829120914,376.61786828246835 M281.7212829120914,376.61786828246835 L272.98347244449894,372.66304645840296 M338.2060245657765,259.6942723850411 L345.0540940435568,264.72556502293753 M345.0540940435568,264.72556502293753 L349.60851409110325,270.55586218647903 M349.60851409110325,270.55586218647903 L351.6036140349717,276.8469608520109 M351.6036140349717,276.8469608520109 L350.9220549621898,283.2335499212238 M350.9220549621898,283.2335499212238 L347.60197776439674,289.3443625383146 M347.60197776439674,289.3443625383146 L341.83511786421553,294.82378061002635 M341.83511786421553,294.82378061002635 L333.9559275076053,299.35260106314144 M333.9559275076053,299.35260106314144 L324.4223183320108,302.6667712661743 M324.4223183320108,302.6667712661743 L313.7890473107093,304.57293182766574 M313.7890473107093,304.57293182766574 L302.6752980405029,304.9598153015279 M302.6752980405029,304.9598153015279 L291.72843553624614,303.8048326657106 M291.72843553624614,303.8048326657106 L281.58603678761745,301.17541321046014 M281.58603678761745,301.17541321046014 L272.83853343978495,297.2250095494136 M272.98347244449894,372.66304645840296 L266.1471484564245,367.6164265884624 M266.1471484564245,367.6164265884624 L261.60927097496915,361.7721344615877 M261.60927097496915,361.7721344615877 L259.63256943640556,355.47045592051904 M259.63256943640556,355.47045592051904 L260.33053030735834,349.07791467293004 M260.33053030735834,349.07791467293004 L263.6611380343912,342.96592848487137 M263.6611380343912,342.96592848487137 L269.42960422699747,337.4892113538789 M269.42960422699747,337.4892113538789 L277.30001116138163,332.965299418082 M277.30001116138163,332.965299418082 L286.8149625831971,329.65625474048727 M286.8149625831971,329.65625474048727 L297.42216668522025,327.7536288721414 M297.42216668522025,327.7536288721414 L308.5064013596013,327.36751868483435 M308.5064013596013,327.36751868483435 L319.4249395275998,328.5202521795386 M319.4249395275998,328.5202521795386 L329.5446300163374,331.1451424403885 M329.5446300163374,331.1451424403885 L338.2783333818754,335.09028346282804 M272.83853343978495,297.2250095494136 L265.9946362752232,292.184029041679 M265.9946362752232,292.184029041679 L261.45174466297135,286.346269722969 M261.45174466297135,286.346269722969 L259.47287723744495,280.05163776774407 M259.47287723744495,280.05163776774407 L260.17164325050175,273.66624736686913 M260.17164325050175,273.66624736686913 L263.50597711260144,267.561100692934 M263.50597711260144,267.561100692934 L269.2808711764279,262.09051426752006 M269.2808711764279,262.09051426752006 L277.16003264912126,257.5716679368672 M277.16003264912126,257.5716679368672 L286.6855565069082,254.26632937778106 M286.6855565069082,254.26632937778106 L297.3045380384512,252.36583476850706 M297.3045380384512,252.36583476850706 L308.4010733939205,251.98015711810328 M308.4010733939205,251.98015711810328 L319.3317238604902,253.1315993011084 M319.3317238604902,253.1315993011084 L329.46263742267854,255.7535494398978 M329.46263742267854,255.7535494398978 L338.2060245657765,259.6942723850411" stroke="black"  stroke-width="4"  fill="red"/>
<path d="M501.4255518865055,429.1788311532478 L501.5346191933496,353.67775443271836 M436.13059085581926,466.9608545329957 L436.1670276404083,391.41775101208646 M501.4255518865055,429.1788311532478 L436.13059085581926,466.9608545329957 M501.5346191933496,353.67775443271836 L436.1670276404083,391.41775101208646 M501.64392954711707,504.8270718367095 L501.7534837611272,429.24194167194406 M436.13059085581926,466.9608545329957 L501.64392954711707,504.8270718367095 M436.1670276404083,391.41775101208646 L501.7534837611272,429.24194167194406 M566.93864753088,466.9608545329957 L567.1208314538258,391.41775101208646 M501.64392954711707,504.8270718367095 L566.93864753088,466.9608545329957 M501.7534837611272,429.24194167194406 L567.1208314538258,391.41775101208646 M566.93864753088,466.9608545329957 L501.4255518865055,429.1788311532478 M567.1208314538258,391.41775101208646 L501.5346191933496,353.67775443271836 M517.8537884336181,457.5074664856845 L517.9812462022023,381.9748696624451 M485.2063660848707,476.4195046944438 L485.29750878690226,400.8658944856341 M517.8537884336181,457.5074664856845 L521.2995553571061,460.04399337256046 M521.2995553571061,460.04399337256046 L523.5973411869084,462.9828632799393 M523.5973411869084,462.9828632799393 L524.6133661216161,466.15344148310817 M524.6133661216161,466.15344148310817 L524.2882320648853,469.3715425065208 M524.2882320648853,469.3715425065208 L522.6404693855595,472.45011791996956 M522.6404693855595,472.45011791996956 L519.7655325373719,475.210129956543 M519.7655325373719,475.210129956543 L515.8303247119256,477.4909840025898 M515.8303247119256,477.4909840025898 L511.0635454871511,479.15990944393536 M511.0635454871511,479.15990944393536 L505.7423988191154,480.11972581102884 M505.7423988191154,480.11972581102884 L500.1764365378136,480.31452994982715 M500.1764365378136,480.31452994982715 L494.6894989864926,479.73297198740545 M494.6894989864926,479.73297198740545 L489.60081470852316,478.4089279447513 M489.60081470852316,478.4089279447513 L485.2063660848707,476.4195046944438 M517.9812462022023,381.9748696624451 L521.4308611643298,384.5085768245141 M521.4308611643298,384.5085768245141 L523.7312182708974,387.44418027028667 M523.7312182708974,387.44418027028667 L524.74838774515,390.61123510971635 M524.74838774515,390.61123510971635 L524.4229041963538,393.82576063207364 M524.4229041963538,393.82576063207364 L522.7733174850832,396.900916200523 M522.7733174850832,396.900916200523 L519.8951873854826,399.65786279694186 M519.8951873854826,399.65786279694186 L515.9556022764816,401.93618396187793 M515.9556022764816,401.93618396187793 L511.1835161255427,403.6032562827449 M511.1835161255427,403.6032562827449 L505.8564416959056,404.5620069836199 M505.8564416959056,404.5620069836199 L500.2842759999804,404.7565948423808 M500.2842759999804,404.7565948423808 L494.79122072236146,404.17568255829843 M494.79122072236146,404.17568255829843 L489.69686072314926,402.8531086263938 M489.69686072314926,402.8531086263938 L485.29750878690226,400.8658944856341 M485.2063660848707,476.4195046944438 L481.761634345026,473.88053238017415 M481.761634345026,473.88053238017415 L479.4667310354948,470.9397772647873 M479.4667310354948,470.9397772647873 L478.45477560448165,467.7683059497011 M478.45477560448165,467.7683059497011 L478.78422762977624,464.55050490390107 M478.78422762977624,464.55050490390107 L480.435578610328,461.47336022464594 M480.435578610328,461.47336022464594 L483.31254581122215,458.71557830906346 M483.31254581122215,458.71557830906346 L487.24776090760434,456.4372428757479 M487.24776090760434,456.4372428757479 L492.0125226556496,454.7705475541021 M492.0125226556496,454.7705475541021 L497.33008928257954,453.81216192288434 M497.33008928257954,453.81216192288434 L502.8917353474328,453.6176649769383 M502.8917353474328,453.6176649769383 L508.37459823818756,454.1983298283369 M508.37459823818756,454.1983298283369 L513.460389111714,455.5204886638602 M513.460389111714,455.5204886638602 L517.8537884336181,457.5074664856845 M485.29750878690226,400.8658944856341 L481.8489313086369,398.3297418916311 M481.8489313086369,398.3297418916311 L479.5514631432857,395.39225323435096 M479.5514631432857,395.39225323435096 L478.5383722434329,392.2243052813458 M478.5383722434329,392.2243052813458 L478.868183396304,389.01007974117283 M478.868183396304,389.01007974117283 L480.521366414082,385.93635490957297 M480.521366414082,385.93635490957297 L483.40153140056253,383.1816384382854 M483.40153140056253,383.1816384382854 L487.34112380483066,380.90583589075675 M487.34112380483066,380.90583589075675 L492.1111879879549,379.24099369373045 M492.1111879879549,379.24099369373045 L497.4346743988456,378.28367373138786 M497.4346743988456,378.28367373138786 L503.00251424867395,378.0893930620351 M503.00251424867395,378.0893930620351 L508.49148577776424,378.6694122334359 M508.49148577776424,378.6694122334359 L513.582945915166,379.9901009547092 M513.582945915166,379.9901009547092 L517.9812462022023,381.9748696624451" stroke="black"  stroke-width="4"  fill="red"/>
<path d="M426.3493231198226,510.5142835568945 L426.3748943212872,434.9228494284937 M393.5999231561507,529.4853954814678 L393.5889518400476,453.8729482312948 M426.3493231198226,510.5142835568945 L429.7936257560523,513.0587307314083 M429.7936257560523,513.0587307314083 L432.087070055158,516.0067790284652 M432.087070055158,516.0067790284652 L433.09612733232376,519.1872610667284 M433.09612733232376,519.1872610667284 L432.7618085006113,522.4154130427356 M432.7618085006113,522.4154130427356 L431.1031654497293,525.5036087665105 M431.1031654497293,525.5036087665105 L428.21630120998685,528.2722410184574 M428.21630120998685,528.2722410184574 L424.2687940469334,530.5602237843049 M424.2687940469334,530.5602237843049 L419.4900758627527,532.2343613188758 M419.4900758627527,532.2343613188758 L414.1580274371155,533.1971798351764 M414.1580274371155,533.1971798351764 L408.58285234387205,533.3925913448238 M408.58285234387205,533.3925913448238 L403.0889163804532,532.8092170312618 M403.0889163804532,532.8092170312618 L397.9958610665884,531.4810357225699 M397.9958610665884,531.4810357225699 L393.5999231561507,529.4853954814678 M426.3748943212872,434.9228494284937 L429.8230417461117,437.46447690818565 M429.8230417461117,437.46447690818565 L432.1190476579489,440.40925877969437 M432.1190476579489,440.40925877969437 L433.1292339542596,443.58621749510127 M433.1292339542596,443.58621749510127 L432.794545157357,446.81079401723565 M432.794545157357,446.81079401723565 L431.13405382240154,449.89556993944075 M431.13405382240154,449.89556993944075 L428.24396972627716,452.6611367985773 M428.24396972627716,452.6611367985773 L424.29205784778105,454.9465867192223 M424.29205784778105,454.9465867192223 L419.5080060937252,456.6188711654439 M419.5080060937252,456.6188711654439 L414.17000558274117,457.58062402940794 M414.17000558274117,457.58062402940794 L408.5886065078596,457.7758192640339 M408.5886065078596,457.7758192640339 L403.088537194761,457.19309061735623 M403.088537194761,457.19309061735623 L397.98979639682636,455.86637939600433 M397.98979639682636,455.86637939600433 L393.5889518400476,453.8729482312948 M393.5999231561507,529.4853954814678 L390.15666554394073,526.9384914135354 M390.15666554394073,526.9384914135354 L387.8661178637223,523.988549068299 M387.8661178637223,523.988549068299 L386.86114521686943,520.8071697298365 M386.86114521686943,520.8071697298365 L387.1997947023705,517.579319143317 M387.1997947023705,517.579319143317 L388.86203339903494,514.4925608639476 M388.86203339903494,514.4925608639476 L391.75092830544463,511.7261691880452 M391.75092830544463,511.7261691880452 L395.69843595580784,509.4407168473649 M395.69843595580784,509.4407168473649 L400.47512433609273,507.7688198859867 M400.47512433609273,507.7688198859867 L405.80357766898715,506.8074388187525 M405.80357766898715,506.8074388187525 L411.37442222520053,506.6123359346532 M411.37442222520053,506.6123359346532 L416.8642732124429,507.1948129506994 M416.8642732124429,507.1948129506994 L421.95443117848043,508.52110021226423 M421.95443117848043,508.52110021226423 L426.3493231198226,510.5142835568945 M393.5889518400476,453.8729482312948 L390.1418517723988,451.32886384080655 M390.1418517723988,451.32886384080655 L387.84874894759486,448.38218790772186 M387.84874894759486,448.38218790772186 L386.8426564029516,445.20433188576914 M386.8426564029516,445.20433188576914 L387.18168553164014,441.98005675928783 M387.18168553164014,441.98005675928783 L388.8457805422649,438.8967182916548 M388.8457805422649,438.8967182916548 L391.7378998403007,436.1333920244103 M391.7378998403007,436.1333920244103 L395.68981220774015,433.8504725468306 M395.68981220774015,433.8504725468306 L400.4718296255481,432.18042868964994 M400.4718296255481,432.18042868964994 L405.80622701575567,431.22011328492 M405.80622701575567,431.22011328492 L411.3832858760006,431.0252266739917 M411.3832858760006,431.0252266739917 L416.8792610904083,431.6070580168066 M416.8792610904083,431.6070580168066 L421.9750980699269,432.9318751776341 M421.9750980699269,432.9318751776341 L426.3748943212872,434.9228494284937" stroke="black"  stroke-width="4"  fill="red"/>
<path d="M615.8143851375751,325.4278403960354 L618.7005596821805,327.44431112744803 M618.7005596821805,327.44431112744803 L620.8505476712112,329.7451819620583 M620.8505476712112,329.7451819620583 L622.1816363931646,332.2421174970429 M622.1816363931646,332.2421174970429 L622.6424888494694,334.83924112349536 M622.6424888494694,334.83924112349536 L664.6086631815922,410.319304482857 M664.6086631815922,410.319304482857 L631.8342603233102,391.4807212068809 M615.8143851375751,325.4278403960354 L631.8342603233102,391.4807212068809 M622.6424888494694,334.83924112349536 L622.0821783902461,337.80201582044344 M622.0821783902461,337.80201582044344 L620.3908108138053,340.61670935161635 M620.3908108138053,340.61670935161635 L617.6529275331209,343.14206315702296 M617.6529275331209,343.14206315702296 L614.0057206879505,345.25129876764385 M614.0057206879505,345.25129876764385 L609.6320663928454,346.8384830253473 M609.6320663928454,346.8384830253473 L604.7513917622366,347.8238528228158 M604.7513917622366,347.8238528228158 L599.6086862829495,348.157910817142 M599.6086862829495,348.157910817142 L599.5315337324523,448.0593361625379 M599.5315337324523,448.0593361625379 L664.6086631815922,410.319304482857 M599.6086862829495,348.157910817142 L595.0967377450959,347.90189853088305 M595.0967377450959,347.90189853088305 L590.7554177000352,347.1437210518308 M590.7554177000352,347.1437210518308 L586.7517220500811,345.91257841322397 M586.7517220500811,345.91257841322397 L583.2396237173689,344.2558776788984 M583.2396237173689,344.2558776788984 L566.7568686861398,429.1788311532478 M566.7568686861398,429.1788311532478 L599.5315337324523,448.0593361625379 M583.2396237173689,344.2558776788984 L580.3541294195084,342.23740328217986 M580.3541294195084,342.23740328217986 L578.2060956157827,339.9348374132037 M578.2060956157827,339.9348374132037 L576.8779551920836,337.43676330395505 M576.8779551920836,337.43676330395505 L576.4205786154355,334.83924112349536 M576.4205786154355,334.83924112349536 L534.0186199343229,410.319304482857 M534.0186199343229,410.319304482857 L566.7568686861398,429.1788311532478 M576.4205786154355,334.83924112349536 L576.9848293661232,331.87698134529415 M576.9848293661232,331.87698134529415 L578.6793740924843,329.0637442384515 M578.6793740924843,329.0637442384515 L581.4190183164899,326.5404862443697 M581.4190183164899,326.5404862443697 L585.0662386601507,324.43358079494647 M585.0662386601507,324.43358079494647 L589.4381563352508,322.8484995390814 M589.4381563352508,322.8484995390814 L594.3156706477473,321.8645789776855 M594.3156706477473,321.8645789776855 L599.4544418422945,321.53104308653917 M599.4544418422945,321.53104308653917 L599.0962330508867,372.6630464584031 M599.0962330508867,372.6630464584031 L534.0186199343229,410.319304482857 M599.4544418422945,321.53104308653917 L603.9629098825073,321.7866568205269 M603.9629098825073,321.7866568205269 L608.3012684796024,322.5437029046242 M608.3012684796024,322.5437029046242 L612.3029902648391,323.77314332963635 M612.3029902648391,323.77314332963635 L615.8143851375751,325.4278403960354 M631.8342603233102,391.4807212068809 L599.0962330508867,372.6630464584031" stroke="black"  stroke-width="4"  fill="red"/>
<path d="M324.7949645622489,531.3836701564807 L324.7071842406092,455.7691216027941 M259.1060238685718,569.3936644026369 L258.94473357708944,493.73709019594673 M324.7949645622489,531.3836701564807 L259.1060238685718,569.3936644026369 M324.7071842406092,455.7691216027941 L258.94473357708944,493.73709019594673 M249.46708863108643,596.9230093476442 L249.29488705733766,521.2360564789606 M259.1060238685718,569.3936644026369 L249.46708863108643,596.9230093476442 M258.94473357708944,493.73709019594673 L249.29488705733766,521.2360564789606 M255.65275239215612,609.3955990010727 L255.4874088125255,533.6948989557044 M249.46708863108643,596.9230093476442 L248.90000038618436,599.6087901906568 M248.90000038618436,599.6087901906568 L249.26801282891628,602.3052074019216 M249.26801282891628,602.3052074019216 L250.55645961866273,604.903638885403 M250.55645961866273,604.903638885403 L252.71362963218772,607.299314590336 M252.71362963218772,607.299314590336 L255.65275239215612,609.3955990010727 M249.29488705733766,521.2360564789606 L248.7271509181008,523.9188762175432 M248.7271509181008,523.9188762175432 L249.09556136125474,526.6123210729384 M249.09556136125474,526.6123210729384 L250.38543643207984,529.2078886642513 M250.38543643207984,529.2078886642513 L252.54500789346568,531.6009243385305 M252.54500789346568,531.6009243385305 L255.4874088125255,533.6948989557044 M277.1243230767654,613.0209191093668 L276.9829886031268,537.3162251798752 M255.65275239215612,609.3955990010727 L259.2554317086176,611.1079215475321 M259.2554317086176,611.1079215475321 L263.37649503930817,612.3671550027741 M263.37649503930817,612.3671550027741 L267.84976511769656,613.1224704467684 M267.84976511769656,613.1224704467684 L272.4948037672115,613.343373615776 M272.4948037672115,613.343373615776 L277.1243230767654,613.0209191093668 M255.4874088125255,533.6948989557044 L259.0941109960199,535.4053349910316 M259.0941109960199,535.4053349910316 L263.21977974981735,536.6631812379459 M263.21977974981735,536.6631812379459 L267.69805196078266,537.4176646542336 M267.69805196078266,537.4176646542336 L272.34828747520095,537.6383244914992 M272.34828747520095,537.6383244914992 L276.9829886031268,537.3162251798752 M324.6192077179824,607.4886161683419 L324.5310343358286,531.7900173225368 M277.1243230767654,613.0209191093668 L324.6192077179824,607.4886161683419 M276.9829886031268,537.3162251798752 L324.5310343358286,531.7900173225368 M390.3083446126466,569.3936644026369 L390.2936818588754,493.7370901959468 M324.6192077179824,607.4886161683419 L390.3083446126466,569.3936644026369 M324.5310343358286,531.7900173225368 L390.2936818588754,493.7370901959468 M390.3083446126466,569.3936644026369 L324.7949645622489,531.3836701564807 M390.2936818588754,493.7370901959468 L324.7071842406092,455.7691216027941" stroke="black"  stroke-width="4"  fill="red"/>
<path d="M91.84087311919609,392.40403859807225 L91.70240130871628,362.24012739007975 M158.77612264346092,382.0692724428628 L158.66743048861287,351.9099668429934 M91.84087311919609,392.40403859807225 L158.77612264346092,382.0692724428628 M91.70240130871628,362.24012739007975 L158.66743048861287,351.9099668429934 M43.195501077550205,364.1838201889673 L43.03554420102114,334.03249171345846 M43.195501077550205,364.1838201889673 L91.84087311919609,392.40403859807225 M43.03554420102114,334.03249171345846 L91.70240130871628,362.24012739007975 M176.94353150162675,343.5549488954882 L176.84302497946715,313.41283154948934 M158.77612264346092,382.0692724428628 L176.94353150162675,343.5549488954882 M158.66743048861287,351.9099668429934 L176.84302497946715,313.41283154948934 M176.94353150162675,343.5549488954882 L128.29745609340165,315.4159426336667 M128.29745609340165,315.4159426336667 L61.4845731717611,325.7101062782858 M61.4845731717611,325.7101062782858 L43.195501077550205,364.1838201889673 M83.87353800075044,368.9020174691666 L90.84518798488034,372.06510032596805 M90.84518798488034,372.06510032596805 L98.93703862387554,374.1703881995876 M98.93703862387554,374.1703881995876 L107.67817576631762,375.09512384836614 M107.67817576631762,375.09512384836614 L116.55971727604725,374.78536382288013 M116.55971727604725,374.78536382288013 L125.06456179913795,373.25918415736436 M125.06456179913795,373.25918415736436 L132.6976454243233,370.60558869565426 M132.6976454243233,370.60558869565426 L139.01492263377543,366.9792824923378 M139.01492263377543,366.9792824923378 L143.64926751638882,362.59155072306214 M143.64926751638882,362.59155072306214 L146.33176064749875,357.69788291280196 M146.33176064749875,357.69788291280196 L146.90730563390306,352.58298646774614 M146.90730563390306,352.58298646774614 L145.34337327046356,347.54418746124736 M145.34337327046356,347.54418746124736 L141.73174641357014,342.87412894848325 M141.73174641357014,342.87412894848325 L136.28296210538042,338.8438104014036 M136.28296210538042,338.8438104014036 L129.3139026021894,335.6869291285844 M129.3139026021894,335.6869291285844 L121.22936089184435,333.58641578996065 M121.22936089184435,333.58641578996065 L112.49854705470858,332.6639366064251 M112.49854705470858,332.6639366064251 L103.6280187892628,332.9729343338292 M103.6280187892628,332.9729343338292 L95.13231407420966,334.49547702024086 M95.13231407420966,334.49547702024086 L87.50441993825382,337.143423754258 M87.50441993825382,337.143423754258 L81.18719800932644,340.7633464680862 M81.18719800932644,340.7633464680862 L76.54776153591598,345.14542235011515 M76.54776153591598,345.14542235011515 L73.8561914065047,350.0354746690401 M73.8561914065047,350.0354746690401 L73.26964650727888,355.1495945027547 M73.26964650727888,355.1495945027547 L74.82321636143126,360.19066429518153 M74.82321636143126,360.19066429518153 L78.42745152974169,364.86550450804407 M78.42745152974169,364.86550450804407 L83.87353800075044,368.9020174691666 M61.4845731717611,325.7101062782858 L61.33290981155028,295.5759659408591 M61.33290981155028,295.5759659408591 L43.03554420102114,334.03249171345846 M128.29745609340165,315.4159426336667 L128.1754635680772,285.2864077918177 M176.84302497946715,313.41283154948934 L128.1754635680772,285.2864077918177 M128.1754635680772,285.2864077918177 L61.33290981155028,295.5759659408591 M83.87353800075044,368.9020174691666 L84.5812227282143,519.2685200648477 M84.5812227282143,519.2685200648477 L91.53749780964608,522.4386018129117 M91.53749780964608,522.4386018129117 L99.61146841530399,524.5485472891694 M99.61146841530399,524.5485472891694 L108.33326231716154,525.4753285797276 M108.33326231716154,525.4753285797276 L117.19512543568362,525.16488333516 M117.19512543568362,525.16488333516 L125.68110421437166,523.6353274293602 M125.68110421437166,523.6353274293602 L133.29723464232518,520.9758609127531 M133.29723464232518,520.9758609127531 L139.60045842049522,517.3415300496536 M139.60045842049522,517.3415300496536 L144.2244663642934,512.9440863574271 M144.2244663642934,512.9440863574271 L146.9009379244571,508.0395837969479 M146.9009379244571,508.0395837969479 L147.47512317473638,502.9133594408149 M147.47512317473638,502.9133594408149 L145.91456782351247,497.86339770448467 M145.91456782351247,497.86339770448467 L142.31085453118123,493.18299038336175 M142.31085453118123,493.18299038336175 L136.87405761280758,489.1437383893393 M136.87405761280758,489.1437383893393 L129.92036166092817,485.9798582104993 M129.92036166092817,485.9798582104993 L121.85366776636454,483.8746872438022 M121.85366776636454,483.8746872438022 L113.14215153250319,482.95016239432334 M113.14215153250319,482.95016239432334 L104.29125296685072,483.2598453595 M104.29125296685072,483.2598453595 L95.81437349402574,484.785764275668 M95.81437349402574,484.785764275668 L88.20340948407335,487.43958209321704 M88.20340948407335,487.43958209321704 L81.90024062013555,491.06752949019943 M81.90024062013555,491.06752949019943 L77.27116350808404,495.45931730793257 M77.27116350808404,495.45931730793257 L74.585655035603,500.3602044141567 M74.585655035603,500.3602044141567 L74.0005184755712,505.48565214589183 M74.0005184755712,505.48565214589183 L75.55075721458263,510.5378846757387 M75.55075721458263,510.5378846757387 L79.14711158426792,515.223073687408 M79.14711158426792,515.223073687408 L84.5812227282143,519.2685200648477" stroke="black"  stroke-width="4"  fill="red"/>
<path d="M273.2723842940232,297.6007398896708 L273.1280869632029,222.24675371644202 M207.97784988845643,335.09028167320537 L207.76092344363036,259.6942705974223 M273.2723842940232,297.6007398896708 L207.97784988845643,335.09028167320537 M273.1280869632029,222.24675371644202 L207.76092344363036,259.6942705974223 M143.11620123798065,297.6007363183485 L142.82760658672203,222.24675014912748 M207.97784988845643,335.09028167320537 L143.11620123798065,297.6007363183485 M207.76092344363036,259.6942705974223 L142.82760658672203,222.24675014912748 M208.4102567807811,260.19413599893676 L208.19428964909056,184.88217350487122 M143.11620123798065,297.6007363183485 L208.4102567807811,260.19413599893676 M142.82760658672203,222.24675014912748 L208.19428964909056,184.88217350487122 M208.4102567807811,260.19413599893676 L273.2723842940232,297.6007398896708 M208.19428964909056,184.88217350487122 L273.1280869632029,222.24675371644202" stroke="black"  stroke-width="4"  fill="red"/>
<path d="M593.1847357313543,482.0972224341573 L593.3962574781433,406.53730821933755 M527.8901606536297,519.9971961249212 L528.0290531700525,444.3952554169378 M593.1847357313543,482.0972224341573 L527.8901606536297,519.9971961249212 M593.3962574781433,406.53730821933755 L528.0290531700525,444.3952554169378 M626.0252413130809,501.03665335995066 L593.1847357313543,482.0972224341573 M626.2735088399891,425.4557258435677 L593.3962574781433,406.53730821933755 M626.2735088399891,425.4557258435677 L626.0252413130809,501.03665335995066 M527.8901606536297,519.9971961249212 L560.7308817361848,538.9788860488981 M560.7308817361848,538.9788860488981 L560.9065207547746,463.3559322988979 M528.0290531700525,444.3952554169378 L560.9065207547746,463.3559322988979 M626.0252413130809,501.03665335995066 L560.7308817361848,538.9788860488981 M626.2735088399891,425.4557258435677 L560.9065207547746,463.3559322988979" stroke="black"  stroke-width="4"  fill="red"/>
<path d="M658.9023543026567,519.9971961249213 L649.0353729865988,514.3068144523091 M649.0353729865988,514.3068144523091 L651.2317414275115,515.2888912690973 M651.2317414275115,515.2888912690973 L653.3202272693932,515.6537887068826 M653.3202272693932,515.6537887068826 L655.196127419807,515.3831343050822 M655.196127419807,515.3831343050822 L656.7653651666487,514.4904101138696 M656.7653651666487,514.4904101138696 L657.949151314632,513.0202598431858 M657.949151314632,513.0202598431858 L658.6881050573493,511.0463616941357 M658.6881050573493,511.0463616941357 L658.9450780516308,508.66765171301023 M658.9023543026567,519.9971961249213 L658.9450780516308,508.66765171301023 M593.6082513189992,557.9817585305401 L658.9023543026567,519.9971961249213 M583.7411887021117,552.2786705080999 L593.6082513189992,557.9817585305401 M649.0353729865988,514.3068144523091 L583.7411887021117,552.2786705080999 M583.7411887021117,552.2786705080999 L585.9373020759308,553.2634166849562 M585.9373020759308,553.2634166849562 L588.0250001233946,553.6305348377089 M588.0250001233946,553.6305348377089 L589.8996191812489,553.3615410372948 M589.8996191812489,553.3615410372948 L591.4671466688751,552.4698338941878 M591.4671466688751,552.4698338941878 L592.6488790289945,551.0000058493358 M592.6488790289945,551.0000058493358 L593.3855383316852,549.0257188236022 M593.3855383316852,549.0257188236022 L593.6400912109516,546.6459282097603 M658.9450780516308,508.66765171301023 L593.6400912109516,546.6459282097603 M593.6082513189992,557.9817585305401 L593.6400912109516,546.6459282097603" stroke="black"  stroke-width="4"  fill="red"/>
<path d="M495.1882546323802,538.9788860488981 L495.2907107265577,463.3559322988979 M429.6749006983408,577.005849047557 L429.704239312259,501.3408698216445 M495.1882546323802,538.9788860488981 L429.6749006983408,577.005849047557 M495.2907107265577,463.3559322988979 L429.704239312259,501.3408698216445 M495.3933958752716,615.1178264951288 L495.4963108475055,539.4108228715235 M429.6749006983408,577.005849047557 L495.3933958752716,615.1178264951288 M429.704239312259,501.3408698216445 L495.4963108475055,539.4108228715235 M560.9065207547746,577.005849047557 L561.0825524382842,501.3408698216445 M495.3933958752716,615.1178264951288 L560.9065207547746,577.005849047557 M495.4963108475055,539.4108228715235 L561.0825524382842,501.3408698216445 M560.9065207547746,577.005849047557 L495.1882546323802,538.9788860488981 M561.0825524382842,501.3408698216445 L495.2907107265577,463.3559322988979" stroke="black"  stroke-width="4"  fill="red"/>
<path d="M681.6279169381285,495.3526089440927 L485.52625685088617,609.3955990010727 M658.6178940224922,482.09722243415735 L681.6279169381285,495.3526089440927 M658.6178940224922,482.09722243415735 L462.5157932160943,596.0511931569291 M462.5157932160943,596.0511931569291 L485.52625685088617,609.3955990010727 M485.52625685088617,609.3955990010727 L487.3926151365834,610.1309282547348 M487.3926151365834,610.1309282547348 L489.43543509358585,610.3276518777133 M489.43543509358585,610.3276518777133 L491.5140257732602,610.0437262564868 M491.5140257732602,610.0437262564868 L493.54243091787004,609.3713926199345 M493.54243091787004,609.3713926199345 L495.4955403889065,608.3806508343013 M495.4955403889065,608.3806508343013 L497.9339286487621,606.6601592151251 M497.9339286487621,606.6601592151251 L500.404853272805,604.2868146978811 M500.404853272805,604.2868146978811 L502.5061963855752,601.601743608989 M502.5061963855752,601.601743608989 L504.25308136874025,598.6291647011362 M691.5429960191534,489.7102519541027 L504.25308136874025,598.6291647011362 M681.6279169381285,495.3526089440927 L683.824410442792,496.3333546233646 M683.824410442792,496.3333546233646 L685.9132869228733,496.6971450716679 M685.9132869228733,496.6971450716679 L687.7898237345412,496.4256633937014 M687.7898237345412,496.4256633937014 L689.359912294547,495.5324332076511 M689.359912294547,495.5324332076511 L690.5447208049361,494.0621237307912 M690.5447208049361,494.0621237307912 L691.2848172481683,492.0884212085434 M691.2848172481683,492.0884212085434 L691.5429960191534,489.7102519541027 M691.5429960191534,489.7102519541027 L691.8161359437936,425.4557258435677 M658.9023543026567,406.53730821933755 L691.8161359437936,425.4557258435677 M658.9023543026567,406.53730821933755 L658.6178940224922,482.09722243415735 M423.20384964093097,391.290539210825 L685.6080671208513,239.82539252289192 M423.15075572092945,573.5273148465914 L423.20384964093097,391.290539210825 M423.15075572092945,573.5273148465914 L431.9232114718339,569.5752789764607 M431.9232114718339,569.5752789764607 L440.2518467228742,568.1004657965367 M440.2518467228742,568.1004657965367 L447.7188854896497,569.1755035437108 M447.7188854896497,569.1755035437108 L453.95031381436974,572.74490907217 M453.95031381436974,572.74490907217 L458.63453140143054,578.6281914180577 M458.63453140143054,578.6281914180577 L461.5378103701838,586.529200033871 M461.5378103701838,586.529200033871 L462.5157932160943,596.0511931569291 M658.9023543026567,406.53730821933755 L684.9792548859014,391.41775101208657 M685.6080671208513,239.82539252289192 L684.9792548859014,391.41775101208657 M446.17670230937637,586.8808191514862 L454.94876611897223,582.9250158449477 M454.94876611897223,582.9250158449477 L463.2762526632025,581.4470684636925 M463.2762526632025,581.4470684636925 L470.7414439861083,582.5197616771733 M470.7414439861083,582.5197616771733 L476.9704193840632,586.0877288401148 M476.9704193840632,586.0877288401148 L481.65170224385025,591.9705499352382 M481.65170224385025,591.9705499352382 L484.55171245704594,599.8720964812736 M484.55171245704594,599.8720964812736 L485.52625685088617,609.3955990010727 M446.17670230937637,586.8808191514862 L423.15075572092945,573.5273148465914 M446.17670230937637,586.8808191514862 L448.04470575016455,587.6166409896362 M448.04470575016455,587.6166409896362 L450.0931039773253,587.8152423744491 M450.0931039773253,587.8152423744491 L452.18793916196313,587.5386500584772 M452.18793916196313,587.5386500584772 L454.2501105914766,586.883170173008 M454.2501105914766,586.883170173008 L456.260243780644,585.922253478894 M456.260243780644,585.922253478894 L458.81742659742355,584.2655912833658 M458.81742659742355,584.2655912833658 L461.48571138107593,582.0002010703517 M461.48571138107593,582.0002010703517 L463.84694550816624,579.458812234712 M463.84694550816624,579.458812234712 L465.91603651589674,576.6655883205149 M465.91603651589674,576.6655883205149 L475.0656761686319,574.599394254575 M475.0656761686319,574.599394254575 L483.49151411399737,574.9309324811252 M483.49151411399737,574.9309324811252 L490.875487810448,577.6460991840326 M490.875487810448,577.6460991840326 L496.9393229920541,582.6406937893081 M496.9393229920541,582.6406937893081 L501.45498096499597,589.7245937363233 M501.45498096499597,589.7245937363233 L504.25308136874025,598.6291647011362 M691.8161359437936,425.4557258435677 L708.1168361450575,415.9938802446957 M708.7466386925405,275.7434116290946 L708.1168361450575,415.9938802446957 M466.06432614089397,416.0292150314994 L708.7466386925405,275.7434116290946 M465.91603651589674,576.6655883205149 L466.06432614089397,416.0292150314994 M684.9792548859014,391.41775101208657 L708.0149507548358,404.64662625513034 M708.0149507548358,404.64662625513034 L709.9676529245055,406.0509681675595 M709.9676529245055,406.0509681675595 L711.3324313080266,407.6694461213081 M711.3324313080266,407.6694461213081 L712.0408079825054,409.42095279878265 M712.0408079825054,409.42095279878265 L712.0571641853571,411.21770374248115 M712.0571641853571,411.21770374248115 L711.3805281943578,412.96957321840995 M711.3805281943578,412.96957321840995 L710.0447879180977,414.5887150215159 M710.0447879180977,414.5887150215159 L708.1168361450575,415.9938802446957 M423.20384964093097,391.290539210825 L446.29182939403506,404.6084328316142 M446.29182939403506,404.6084328316142 L708.6954766422687,253.0245525506254 M685.6080671208513,239.82539252289192 L708.6954766422687,253.0245525506254 M446.17670230937637,586.8808191514862 L446.29182939403506,404.6084328316142 M708.6954766422687,253.0245525506254 L708.0149507548358,404.64662625513034 M466.06432614089397,416.0292150314994 L463.2160162931286,414.3822950333593 M463.2160162931286,414.3822950333593 L459.8997505700169,412.4657023592579 M459.8997505700169,412.4657023592579 L456.3354692342592,410.40654880084975 M456.3354692342592,410.40654880084975 L453.1109335340273,408.54429160649966 M453.1109335340273,408.54429160649966 L450.3444819201215,406.94709054495576 M450.3444819201215,406.94709054495576 L448.193038129503,405.70535258037245 M448.193038129503,405.70535258037245 L446.29182939403506,404.6084328316142 M708.7466386925405,275.7434116290946 L710.9332687554711,271.1998733785635 M710.9332687554711,271.1998733785635 L712.3185542735691,266.5822307162155 M712.3185542735691,266.5822307162155 L712.810617130347,262.1967383177714 M712.810617130347,262.1967383177714 L712.4615682946046,258.6892740024435 M712.4615682946046,258.6892740024435 L711.5203664612436,256.05164213183025 M711.5203664612436,256.05164213183025 L710.2872922043844,254.29040277335127 M710.2872922043844,254.29040277335127 L708.6954766422687,253.0245525506254" stroke="black"  stroke-width="4"  fill="red"/>
<path d="M690.8544166488066,425.4052486714 L691.1742762525921,349.9083746274677 M625.7775263513336,463.1788681063227 L626.0252413130809,387.63996726358357 M690.8544166488066,425.4052486714 L625.7775263513336,463.1788681063227 M691.1742762525921,349.9083746274677 L626.0252413130809,387.63996726358357 M691.4948485560299,501.03665335995066 L691.8161359437936,425.4557258435677 M625.7775263513336,463.1788681063227 L691.4948485560299,501.03665335995066 M626.0252413130809,387.63996726358357 L691.8161359437936,425.4557258435677 M756.5710261538509,463.1788681063227 L756.9644557989789,387.63996726358357 M691.4948485560299,501.03665335995066 L756.5710261538509,463.1788681063227 M691.8161359437936,425.4557258435677 L756.9644557989789,387.63996726358357 M756.5710261538509,463.1788681063227 L690.8544166488066,425.4052486714 M756.9644557989789,387.63996726358357 L691.1742762525921,349.9083746274677" stroke="black"  stroke-width="4"  fill="red"/></svg>